{
.appVersion = "1056";
DisplayStrings = (
k,
/a.ss02
);
customParameters = (
{
name = Axes;
value = (
{
Name = Weight;
Tag = wght;
}
);
}
);
date = "2018-09-15 09:11:05 +0000";
designer = "Alexandre Texier";
familyName = "24x36";
featurePrefixes = (
{
automatic = 1;
code = "languagesystem DFLT dflt;\012";
name = Languagesystems;
}
);
features = (
{
automatic = 1;
code = "feature lnum;\012feature onum;\012feature salt;\012feature ss01;\012feature ss02;\012";
name = aalt;
},
{
automatic = 1;
code = "sub zero.osf by zero;\012sub one.osf by one;\012sub two.osf by two;\012sub three.osf by three;\012sub four.osf by four;\012sub five.osf by five;\012sub six.osf by six;\012sub seven.osf by seven;\012sub eight.osf by eight;\012sub nine.osf by nine;\012";
name = lnum;
},
{
automatic = 1;
code = "sub zero by zero.osf;\012sub one by one.osf;\012sub two by two.osf;\012sub three by three.osf;\012sub four by four.osf;\012sub five by five.osf;\012sub six by six.osf;\012sub seven by seven.osf;\012sub eight by eight.osf;\012sub nine by nine.osf;\012";
name = onum;
},
{
automatic = 1;
code = "sub f t by f_t;\012";
name = dlig;
},
{
automatic = 1;
code = "sub f f l by f_f_l;\012sub f f by f_f;\012";
name = liga;
},
{
automatic = 1;
code = "sub C by C.ss01;\012sub a by a.ss01;\012sub m by m.ss01;\012sub n by n.ss01;\012sub p by p.ss01;\012sub r by r.ss01;\012sub y by y.ss01;\012";
name = salt;
},
{
automatic = 1;
code = "sub C by C.ss01;\012sub a by a.ss01;\012sub m by m.ss01;\012sub n by n.ss01;\012sub p by p.ss01;\012sub r by r.ss01;\012sub y by y.ss01;\012";
name = ss01;
},
{
automatic = 1;
code = "sub C by C.ss02;\012sub a by a.ss02;\012sub m by m.ss02;\012";
name = ss02;
}
);
fontMaster = (
{
ascender = 800;
capHeight = 700;
customParameters = (
{
name = Filter;
value = "Noodler; 70; 1; 1";
}
);
descender = -300;
guideLines = (
{
position = "{-100, 500}";
},
{
position = "{-100, 700}";
},
{
position = "{-100, -300}";
},
{
position = "{-100, 0}";
}
);

glyphs = (
{
glyphname = A;
lastChange = "2018-10-02 12:22:34 +0000";
layers = (
{
layerId = "25139FCF-725A-49A6-A058-8DCF5AC16622";
paths = (
{
closed = 0;
nodes = (
"547 0 LINE",
"284 800 LINE",
"20 0 LINE"
);
},
{
closed = 0;
nodes = (
"138 321 LINE",
"434 321 LINE"
);
}
);
width = 567;
},
{
layerId = "1AB63056-1127-463F-B001-FB2AC81901C9";
paths = (
{
closed = 0;
nodes = (
"547 0 LINE",
"284 800 LINE",
"20 0 LINE"
);
},
{
closed = 0;
nodes = (
"138 321 LINE",
"434 321 LINE"
);
}
);
width = 567;
},
{
associatedMasterId = "6F4F10D2-8254-4335-A627-9F8D8891324D";
layerId = "61D09388-7480-4B01-AA71-EF88F0B141FD";
name = "Oct 2 18, 14:22";
paths = (
{
closed = 1;
nodes = (
"29.005 -20 OFFCURVE",
"36.619 -14.049 OFFCURVE",
"39.126 -5.866 CURVE SMOOTH",
"140.391 301 LINE",
"426.993 301 LINE",
"527.865 -5.836 LINE SMOOTH",
"530.362 -14.035 OFFCURVE",
"537.984 -20 OFFCURVE",
"547 -20 CURVE SMOOTH",
"558.046 -20 OFFCURVE",
"567 -11.046 OFFCURVE",
"567 0 CURVE SMOOTH",
"567 2.34 OFFCURVE",
"566.598 4.586 OFFCURVE",
"565.859 6.673 CURVE SMOOTH",
"308.389 789.853 LINE SMOOTH",
"304.73 800.985 OFFCURVE",
"297.462 806.249 OFFCURVE",
"285.744 806.256 CURVE SMOOTH",
"282.263 806.258 LINE SMOOTH",
"270.545 806.265 OFFCURVE",
"263.271 801.009 OFFCURVE",
"259.599 789.881 CURVE SMOOTH",
"1.144 6.682 LINE SMOOTH",
"0.403 4.593 OFFCURVE",
"0 2.343 OFFCURVE",
"0 0 CURVE SMOOTH",
"0 -11.046 OFFCURVE",
"8.954 -20 OFFCURVE",
"20 -20 CURVE SMOOTH"
);
},
{
closed = 1;
nodes = (
"283.964 736.069 LINE",
"413.843 341 LINE",
"153.591 341 LINE"
);
}
);
width = 567;
},
{
layerId = "6F4F10D2-8254-4335-A627-9F8D8891324D";
paths = (
{
closed = 0;
nodes = (
"547 0 LINE",
"284 800 LINE",
"20 0 LINE"
);
},
{
closed = 0;
nodes = (
"138 321 LINE",
"434 321 LINE"
);
}
);
width = 567;
}
);
unicode = 0041;
},
{
glyphname = B;
lastChange = "2018-10-02 12:19:26 +0000";
layers = (
{
layerId = "6F4F10D2-8254-4335-A627-9F8D8891324D";
paths = (
{
closed = 0;
nodes = (
"180 440 LINE",
"300 440 OFFCURVE",
"380 520 OFFCURVE",
"380 640 CURVE SMOOTH",
"380 800 OFFCURVE",
"220 800 OFFCURVE",
"140 800 CURVE SMOOTH",
"20 800 LINE",
"20 0 LINE",
"145 0 LINE SMOOTH",
"217 0 OFFCURVE",
"420 0 OFFCURVE",
"420 200 CURVE SMOOTH",
"420 440 OFFCURVE",
"220 440 OFFCURVE",
"147 440 CURVE SMOOTH",
"34 440 LINE"
);
}
);
width = 440;
},
{
layerId = "25139FCF-725A-49A6-A058-8DCF5AC16622";
paths = (
{
closed = 0;
nodes = (
"180 440 LINE",
"300 440 OFFCURVE",
"380 520 OFFCURVE",
"380 640 CURVE SMOOTH",
"380 800 OFFCURVE",
"220 800 OFFCURVE",
"140 800 CURVE SMOOTH",
"20 800 LINE",
"20 0 LINE",
"145 0 LINE SMOOTH",
"217 0 OFFCURVE",
"420 0 OFFCURVE",
"420 200 CURVE SMOOTH",
"420 440 OFFCURVE",
"220 440 OFFCURVE",
"147 440 CURVE SMOOTH",
"34 440 LINE"
);
}
);
width = 440;
},
{
layerId = "1AB63056-1127-463F-B001-FB2AC81901C9";
paths = (
{
closed = 0;
nodes = (
"180 440 LINE",
"300 440 OFFCURVE",
"380 520 OFFCURVE",
"380 640 CURVE SMOOTH",
"380 800 OFFCURVE",
"220 800 OFFCURVE",
"140 800 CURVE SMOOTH",
"20 800 LINE",
"20 0 LINE",
"145 0 LINE SMOOTH",
"217 0 OFFCURVE",
"420 0 OFFCURVE",
"420 200 CURVE SMOOTH",
"420 440 OFFCURVE",
"220 440 OFFCURVE",
"147 440 CURVE SMOOTH",
"34 440 LINE"
);
}
);
width = 440;
}
);
unicode = 0042;
},
{
glyphname = C;
lastChange = "2018-09-15 15:05:31 +0000";
layers = (
{
layerId = "6F4F10D2-8254-4335-A627-9F8D8891324D";
paths = (
{
closed = 0;
nodes = (
"532 667 LINE",
"489 749 OFFCURVE",
"415 800 OFFCURVE",
"302 800 CURVE SMOOTH",
"63 800 OFFCURVE",
"20 603 OFFCURVE",
"20 400 CURVE SMOOTH",
"20 186 OFFCURVE",
"63 0 OFFCURVE",
"302 0 CURVE SMOOTH",
"414 0 OFFCURVE",
"487 48 OFFCURVE",
"531 128 CURVE"
);
}
);
width = 552;
},
{
layerId = "25139FCF-725A-49A6-A058-8DCF5AC16622";
paths = (
{
closed = 0;
nodes = (
"532 667 LINE",
"489 749 OFFCURVE",
"415 800 OFFCURVE",
"302 800 CURVE SMOOTH",
"63 800 OFFCURVE",
"20 603 OFFCURVE",
"20 400 CURVE SMOOTH",
"20 186 OFFCURVE",
"63 0 OFFCURVE",
"302 0 CURVE SMOOTH",
"414 0 OFFCURVE",
"487 48 OFFCURVE",
"531 128 CURVE"
);
}
);
width = 552;
},
{
layerId = "1AB63056-1127-463F-B001-FB2AC81901C9";
paths = (
{
closed = 0;
nodes = (
"532 667 LINE",
"489 749 OFFCURVE",
"415 800 OFFCURVE",
"302 800 CURVE SMOOTH",
"63 800 OFFCURVE",
"20 603 OFFCURVE",
"20 400 CURVE SMOOTH",
"20 186 OFFCURVE",
"63 0 OFFCURVE",
"302 0 CURVE SMOOTH",
"414 0 OFFCURVE",
"487 48 OFFCURVE",
"531 128 CURVE"
);
}
);
width = 552;
}
);
unicode = 0043;
},
{
glyphname = D;
lastChange = "2018-09-15 15:05:31 +0000";
layers = (
{
layerId = "6F4F10D2-8254-4335-A627-9F8D8891324D";
paths = (
{
closed = 1;
nodes = (
"20 0 LINE",
"145 0 LINE SMOOTH",
"300 0 OFFCURVE",
"476 80 OFFCURVE",
"476 400 CURVE SMOOTH",
"476 720 OFFCURVE",
"300 800 OFFCURVE",
"133 800 CURVE SMOOTH",
"20 800 LINE"
);
}
);
width = 496;
},
{
layerId = "25139FCF-725A-49A6-A058-8DCF5AC16622";
paths = (
{
closed = 1;
nodes = (
"20 0 LINE",
"145 0 LINE SMOOTH",
"300 0 OFFCURVE",
"476 80 OFFCURVE",
"476 400 CURVE SMOOTH",
"476 720 OFFCURVE",
"300 800 OFFCURVE",
"133 800 CURVE SMOOTH",
"20 800 LINE"
);
}
);
width = 496;
},
{
layerId = "1AB63056-1127-463F-B001-FB2AC81901C9";
paths = (
{
closed = 1;
nodes = (
"20 0 LINE",
"145 0 LINE SMOOTH",
"300 0 OFFCURVE",
"476 80 OFFCURVE",
"476 400 CURVE SMOOTH",
"476 720 OFFCURVE",
"300 800 OFFCURVE",
"133 800 CURVE SMOOTH",
"20 800 LINE"
);
}
);
width = 496;
}
);
unicode = 0044;
},
{
glyphname = E;
lastChange = "2018-09-15 15:05:31 +0000";
layers = (
{
layerId = "6F4F10D2-8254-4335-A627-9F8D8891324D";
paths = (
{
closed = 0;
nodes = (
"415 800 LINE",
"20 800 LINE",
"20 0 LINE",
"415 0 LINE"
);
},
{
closed = 0;
nodes = (
"324 400 LINE",
"20 400 LINE"
);
}
);
width = 435;
},
{
layerId = "25139FCF-725A-49A6-A058-8DCF5AC16622";
paths = (
{
closed = 0;
nodes = (
"415 800 LINE",
"20 800 LINE",
"20 0 LINE",
"415 0 LINE"
);
},
{
closed = 0;
nodes = (
"324 400 LINE",
"20 400 LINE"
);
}
);
width = 435;
},
{
layerId = "1AB63056-1127-463F-B001-FB2AC81901C9";
paths = (
{
closed = 0;
nodes = (
"415 800 LINE",
"20 800 LINE",
"20 0 LINE",
"415 0 LINE"
);
},
{
closed = 0;
nodes = (
"324 400 LINE",
"20 400 LINE"
);
}
);
width = 435;
}
);
unicode = 0045;
},
{
glyphname = F;
lastChange = "2018-09-15 15:05:31 +0000";
layers = (
{
layerId = "6F4F10D2-8254-4335-A627-9F8D8891324D";
paths = (
{
closed = 0;
nodes = (
"417 800 LINE",
"20 800 LINE",
"20 0 LINE"
);
},
{
closed = 0;
nodes = (
"324 400 LINE",
"20 400 LINE"
);
}
);
width = 437;
},
{
layerId = "25139FCF-725A-49A6-A058-8DCF5AC16622";
paths = (
{
closed = 0;
nodes = (
"417 800 LINE",
"20 800 LINE",
"20 0 LINE"
);
},
{
closed = 0;
nodes = (
"324 400 LINE",
"20 400 LINE"
);
}
);
width = 437;
},
{
layerId = "1AB63056-1127-463F-B001-FB2AC81901C9";
paths = (
{
closed = 0;
nodes = (
"417 800 LINE",
"20 800 LINE",
"20 0 LINE"
);
},
{
closed = 0;
nodes = (
"324 400 LINE",
"20 400 LINE"
);
}
);
width = 437;
}
);
unicode = 0046;
},
{
glyphname = G;
lastChange = "2018-09-15 15:05:31 +0000";
layers = (
{
layerId = "6F4F10D2-8254-4335-A627-9F8D8891324D";
paths = (
{
closed = 0;
nodes = (
"532 667 LINE",
"489 749 OFFCURVE",
"415 800 OFFCURVE",
"302 800 CURVE SMOOTH",
"63 800 OFFCURVE",
"20 603 OFFCURVE",
"20 400 CURVE SMOOTH",
"20 186 OFFCURVE",
"63 0 OFFCURVE",
"302 0 CURVE SMOOTH",
"399 0 OFFCURVE",
"522 49 OFFCURVE",
"563 128 CURVE",
"563 351 LINE",
"333 351 LINE"
);
}
);
width = 583;
},
{
layerId = "25139FCF-725A-49A6-A058-8DCF5AC16622";
paths = (
{
closed = 0;
nodes = (
"532 667 LINE",
"489 749 OFFCURVE",
"415 800 OFFCURVE",
"302 800 CURVE SMOOTH",
"63 800 OFFCURVE",
"20 603 OFFCURVE",
"20 400 CURVE SMOOTH",
"20 186 OFFCURVE",
"63 0 OFFCURVE",
"302 0 CURVE SMOOTH",
"399 0 OFFCURVE",
"522 49 OFFCURVE",
"563 128 CURVE",
"563 351 LINE",
"333 351 LINE"
);
}
);
width = 583;
},
{
layerId = "1AB63056-1127-463F-B001-FB2AC81901C9";
paths = (
{
closed = 0;
nodes = (
"532 667 LINE",
"489 749 OFFCURVE",
"415 800 OFFCURVE",
"302 800 CURVE SMOOTH",
"63 800 OFFCURVE",
"20 603 OFFCURVE",
"20 400 CURVE SMOOTH",
"20 186 OFFCURVE",
"63 0 OFFCURVE",
"302 0 CURVE SMOOTH",
"399 0 OFFCURVE",
"522 49 OFFCURVE",
"563 128 CURVE",
"563 351 LINE",
"333 351 LINE"
);
}
);
width = 583;
}
);
unicode = 0047;
},
{
glyphname = H;
lastChange = "2018-09-15 15:05:31 +0000";
layers = (
{
layerId = "6F4F10D2-8254-4335-A627-9F8D8891324D";
paths = (
{
closed = 0;
nodes = (
"20 800 LINE",
"20 0 LINE"
);
},
{
closed = 0;
nodes = (
"484 800 LINE",
"484 0 LINE"
);
},
{
closed = 0;
nodes = (
"20 400 LINE",
"484 400 LINE"
);
}
);
width = 504;
},
{
layerId = "25139FCF-725A-49A6-A058-8DCF5AC16622";
paths = (
{
closed = 0;
nodes = (
"20 800 LINE",
"20 0 LINE"
);
},
{
closed = 0;
nodes = (
"484 800 LINE",
"484 0 LINE"
);
},
{
closed = 0;
nodes = (
"20 400 LINE",
"484 400 LINE"
);
}
);
width = 504;
},
{
layerId = "1AB63056-1127-463F-B001-FB2AC81901C9";
paths = (
{
closed = 0;
nodes = (
"20 800 LINE",
"20 0 LINE"
);
},
{
closed = 0;
nodes = (
"484 800 LINE",
"484 0 LINE"
);
},
{
closed = 0;
nodes = (
"20 400 LINE",
"484 400 LINE"
);
}
);
width = 504;
}
);
unicode = 0048;
},
{
glyphname = I;
lastChange = "2018-09-15 15:05:31 +0000";
layers = (
{
layerId = "6F4F10D2-8254-4335-A627-9F8D8891324D";
paths = (
{
closed = 0;
nodes = (
"20 800 LINE",
"20 0 LINE"
);
}
);
width = 40;
},
{
layerId = "25139FCF-725A-49A6-A058-8DCF5AC16622";
paths = (
{
closed = 0;
nodes = (
"20 800 LINE",
"20 0 LINE"
);
}
);
width = 40;
},
{
layerId = "1AB63056-1127-463F-B001-FB2AC81901C9";
paths = (
{
closed = 0;
nodes = (
"20 800 LINE",
"20 0 LINE"
);
}
);
width = 40;
}
);
unicode = 0049;
},
{
glyphname = J;
lastChange = "2018-09-15 15:05:31 +0000";
layers = (
{
layerId = "6F4F10D2-8254-4335-A627-9F8D8891324D";
paths = (
{
closed = 0;
nodes = (
"420 800 LINE",
"420 160 LINE SMOOTH",
"420 40 OFFCURVE",
"300 0 OFFCURVE",
"220 0 CURVE SMOOTH",
"140 0 OFFCURVE",
"20 40 OFFCURVE",
"20 200 CURVE"
);
}
);
width = 440;
},
{
layerId = "25139FCF-725A-49A6-A058-8DCF5AC16622";
paths = (
{
closed = 0;
nodes = (
"420 800 LINE",
"420 160 LINE SMOOTH",
"420 40 OFFCURVE",
"300 0 OFFCURVE",
"220 0 CURVE SMOOTH",
"140 0 OFFCURVE",
"20 40 OFFCURVE",
"20 200 CURVE"
);
}
);
width = 440;
},
{
layerId = "1AB63056-1127-463F-B001-FB2AC81901C9";
paths = (
{
closed = 0;
nodes = (
"420 800 LINE",
"420 160 LINE SMOOTH",
"420 40 OFFCURVE",
"300 0 OFFCURVE",
"220 0 CURVE SMOOTH",
"140 0 OFFCURVE",
"20 40 OFFCURVE",
"20 200 CURVE"
);
}
);
width = 440;
}
);
unicode = 004A;
},
{
glyphname = K;
lastChange = "2018-09-15 15:05:31 +0000";
layers = (
{
layerId = "6F4F10D2-8254-4335-A627-9F8D8891324D";
paths = (
{
closed = 0;
nodes = (
"20 799 LINE",
"20 1 LINE"
);
},
{
closed = 0;
nodes = (
"20 318 LINE",
"454 800 LINE"
);
},
{
closed = 0;
nodes = (
"116 415 LINE",
"454 0 LINE"
);
}
);
width = 474;
},
{
layerId = "25139FCF-725A-49A6-A058-8DCF5AC16622";
paths = (
{
closed = 0;
nodes = (
"20 799 LINE",
"20 1 LINE"
);
},
{
closed = 0;
nodes = (
"20 318 LINE",
"454 800 LINE"
);
},
{
closed = 0;
nodes = (
"116 415 LINE",
"454 0 LINE"
);
}
);
width = 474;
},
{
layerId = "1AB63056-1127-463F-B001-FB2AC81901C9";
paths = (
{
closed = 0;
nodes = (
"20 799 LINE",
"20 1 LINE"
);
},
{
closed = 0;
nodes = (
"20 318 LINE",
"454 800 LINE"
);
},
{
closed = 0;
nodes = (
"116 415 LINE",
"454 0 LINE"
);
}
);
width = 474;
}
);
unicode = 004B;
},
{
glyphname = L;
lastChange = "2018-09-15 15:05:31 +0000";
layers = (
{
layerId = "6F4F10D2-8254-4335-A627-9F8D8891324D";
paths = (
{
closed = 0;
nodes = (
"20 800 LINE",
"20 0 LINE",
"385 0 LINE"
);
}
);
width = 405;
},
{
layerId = "25139FCF-725A-49A6-A058-8DCF5AC16622";
paths = (
{
closed = 0;
nodes = (
"20 800 LINE",
"20 0 LINE",
"385 0 LINE"
);
}
);
width = 405;
},
{
layerId = "1AB63056-1127-463F-B001-FB2AC81901C9";
paths = (
{
closed = 0;
nodes = (
"20 800 LINE",
"20 0 LINE",
"385 0 LINE"
);
}
);
width = 405;
}
);
unicode = 004C;
},
{
glyphname = M;
lastChange = "2018-09-15 15:05:31 +0000";
layers = (
{
layerId = "6F4F10D2-8254-4335-A627-9F8D8891324D";
paths = (
{
closed = 0;
nodes = (
"660 0 LINE",
"660 800 LINE",
"340 183 LINE",
"20 800 LINE",
"20 0 LINE"
);
}
);
width = 680;
},
{
layerId = "25139FCF-725A-49A6-A058-8DCF5AC16622";
paths = (
{
closed = 0;
nodes = (
"660 0 LINE",
"660 800 LINE",
"340 183 LINE",
"20 800 LINE",
"20 0 LINE"
);
}
);
width = 680;
},
{
layerId = "1AB63056-1127-463F-B001-FB2AC81901C9";
paths = (
{
closed = 0;
nodes = (
"660 0 LINE",
"660 800 LINE",
"340 183 LINE",
"20 800 LINE",
"20 0 LINE"
);
}
);
width = 680;
}
);
unicode = 004D;
},
{
glyphname = N;
lastChange = "2018-09-15 15:05:31 +0000";
layers = (
{
layerId = "6F4F10D2-8254-4335-A627-9F8D8891324D";
paths = (
{
closed = 0;
nodes = (
"20 0 LINE",
"20 800 LINE",
"482 0 LINE",
"482 800 LINE"
);
}
);
width = 502;
},
{
layerId = "25139FCF-725A-49A6-A058-8DCF5AC16622";
paths = (
{
closed = 0;
nodes = (
"20 0 LINE",
"20 800 LINE",
"482 0 LINE",
"482 800 LINE"
);
}
);
width = 502;
},
{
layerId = "1AB63056-1127-463F-B001-FB2AC81901C9";
paths = (
{
closed = 0;
nodes = (
"20 0 LINE",
"20 800 LINE",
"482 0 LINE",
"482 800 LINE"
);
}
);
width = 502;
}
);
unicode = 004E;
},
{
glyphname = O;
lastChange = "2018-09-15 15:05:31 +0000";
layers = (
{
layerId = "6F4F10D2-8254-4335-A627-9F8D8891324D";
paths = (
{
closed = 1;
nodes = (
"555 186 OFFCURVE",
"492 0 OFFCURVE",
"287 0 CURVE SMOOTH",
"82 0 OFFCURVE",
"20 186 OFFCURVE",
"20 400 CURVE SMOOTH",
"20 605 OFFCURVE",
"49 800 OFFCURVE",
"287 800 CURVE SMOOTH",
"492 800 OFFCURVE",
"555 605 OFFCURVE",
"555 401 CURVE SMOOTH"
);
}
);
width = 575;
},
{
layerId = "25139FCF-725A-49A6-A058-8DCF5AC16622";
paths = (
{
closed = 1;
nodes = (
"555 186 OFFCURVE",
"492 0 OFFCURVE",
"287 0 CURVE SMOOTH",
"82 0 OFFCURVE",
"20 186 OFFCURVE",
"20 400 CURVE SMOOTH",
"20 605 OFFCURVE",
"49 800 OFFCURVE",
"287 800 CURVE SMOOTH",
"492 800 OFFCURVE",
"555 605 OFFCURVE",
"555 401 CURVE SMOOTH"
);
}
);
width = 575;
},
{
layerId = "1AB63056-1127-463F-B001-FB2AC81901C9";
paths = (
{
closed = 1;
nodes = (
"555 186 OFFCURVE",
"492 0 OFFCURVE",
"287 0 CURVE SMOOTH",
"82 0 OFFCURVE",
"20 186 OFFCURVE",
"20 400 CURVE SMOOTH",
"20 605 OFFCURVE",
"49 800 OFFCURVE",
"287 800 CURVE SMOOTH",
"492 800 OFFCURVE",
"555 605 OFFCURVE",
"555 401 CURVE SMOOTH"
);
}
);
width = 575;
}
);
unicode = 004F;
},
{
glyphname = OE;
lastChange = "2018-09-15 15:05:31 +0000";
layers = (
{
layerId = "6F4F10D2-8254-4335-A627-9F8D8891324D";
paths = (
{
closed = 0;
nodes = (
"950 800 LINE",
"555 800 LINE",
"555 0 LINE",
"950 0 LINE"
);
},
{
closed = 0;
nodes = (
"858 401 LINE",
"555 401 LINE"
);
},
{
closed = 1;
nodes = (
"555 186 OFFCURVE",
"492 0 OFFCURVE",
"287 0 CURVE SMOOTH",
"81 0 OFFCURVE",
"20 186 OFFCURVE",
"20 400 CURVE SMOOTH",
"20 605 OFFCURVE",
"49 800 OFFCURVE",
"287 800 CURVE SMOOTH",
"492 800 OFFCURVE",
"555 605 OFFCURVE",
"555 401 CURVE SMOOTH"
);
}
);
width = 970;
},
{
layerId = "25139FCF-725A-49A6-A058-8DCF5AC16622";
paths = (
{
closed = 0;
nodes = (
"950 800 LINE",
"555 800 LINE",
"555 0 LINE",
"950 0 LINE"
);
},
{
closed = 0;
nodes = (
"858 401 LINE",
"555 401 LINE"
);
},
{
closed = 1;
nodes = (
"555 186 OFFCURVE",
"492 0 OFFCURVE",
"287 0 CURVE SMOOTH",
"81 0 OFFCURVE",
"20 186 OFFCURVE",
"20 400 CURVE SMOOTH",
"20 605 OFFCURVE",
"49 800 OFFCURVE",
"287 800 CURVE SMOOTH",
"492 800 OFFCURVE",
"555 605 OFFCURVE",
"555 401 CURVE SMOOTH"
);
}
);
width = 970;
},
{
layerId = "1AB63056-1127-463F-B001-FB2AC81901C9";
paths = (
{
closed = 0;
nodes = (
"950 800 LINE",
"555 800 LINE",
"555 0 LINE",
"950 0 LINE"
);
},
{
closed = 0;
nodes = (
"858 401 LINE",
"555 401 LINE"
);
},
{
closed = 1;
nodes = (
"555 186 OFFCURVE",
"492 0 OFFCURVE",
"287 0 CURVE SMOOTH",
"81 0 OFFCURVE",
"20 186 OFFCURVE",
"20 400 CURVE SMOOTH",
"20 605 OFFCURVE",
"49 800 OFFCURVE",
"287 800 CURVE SMOOTH",
"492 800 OFFCURVE",
"555 605 OFFCURVE",
"555 401 CURVE SMOOTH"
);
}
);
width = 970;
}
);
unicode = 0152;
},
{
glyphname = P;
lastChange = "2018-09-15 15:05:31 +0000";
layers = (
{
layerId = "6F4F10D2-8254-4335-A627-9F8D8891324D";
paths = (
{
closed = 0;
nodes = (
"20 0 LINE",
"20 800 LINE",
"255 800 LINE SMOOTH",
"284 800 OFFCURVE",
"450 800 OFFCURVE",
"450 602 CURVE SMOOTH",
"450 399 OFFCURVE",
"284 398 OFFCURVE",
"266 398 CURVE SMOOTH",
"42 398 LINE"
);
}
);
width = 470;
},
{
layerId = "25139FCF-725A-49A6-A058-8DCF5AC16622";
paths = (
{
closed = 0;
nodes = (
"20 0 LINE",
"20 800 LINE",
"255 800 LINE SMOOTH",
"284 800 OFFCURVE",
"450 800 OFFCURVE",
"450 602 CURVE SMOOTH",
"450 399 OFFCURVE",
"284 398 OFFCURVE",
"266 398 CURVE SMOOTH",
"42 398 LINE"
);
}
);
width = 470;
},
{
layerId = "1AB63056-1127-463F-B001-FB2AC81901C9";
paths = (
{
closed = 0;
nodes = (
"20 0 LINE",
"20 800 LINE",
"255 800 LINE SMOOTH",
"284 800 OFFCURVE",
"450 800 OFFCURVE",
"450 602 CURVE SMOOTH",
"450 399 OFFCURVE",
"284 398 OFFCURVE",
"266 398 CURVE SMOOTH",
"42 398 LINE"
);
}
);
width = 470;
}
);
unicode = 0050;
},
{
glyphname = Q;
lastChange = "2018-09-15 15:05:31 +0000";
layers = (
{
layerId = "6F4F10D2-8254-4335-A627-9F8D8891324D";
paths = (
{
closed = 1;
nodes = (
"555 187 OFFCURVE",
"492 0 OFFCURVE",
"287 0 CURVE SMOOTH",
"82 0 OFFCURVE",
"20 186 OFFCURVE",
"20 399 CURVE SMOOTH",
"20 605 OFFCURVE",
"48 800 OFFCURVE",
"287 800 CURVE SMOOTH",
"492 800 OFFCURVE",
"555 605 OFFCURVE",
"555 401 CURVE SMOOTH"
);
},
{
closed = 0;
nodes = (
"348 186 LINE",
"521 -113 LINE"
);
}
);
width = 575;
},
{
layerId = "25139FCF-725A-49A6-A058-8DCF5AC16622";
paths = (
{
closed = 1;
nodes = (
"555 187 OFFCURVE",
"492 0 OFFCURVE",
"287 0 CURVE SMOOTH",
"82 0 OFFCURVE",
"20 186 OFFCURVE",
"20 399 CURVE SMOOTH",
"20 605 OFFCURVE",
"48 800 OFFCURVE",
"287 800 CURVE SMOOTH",
"492 800 OFFCURVE",
"555 605 OFFCURVE",
"555 401 CURVE SMOOTH"
);
},
{
closed = 0;
nodes = (
"348 186 LINE",
"521 -113 LINE"
);
}
);
width = 575;
},
{
layerId = "1AB63056-1127-463F-B001-FB2AC81901C9";
paths = (
{
closed = 1;
nodes = (
"555 187 OFFCURVE",
"492 0 OFFCURVE",
"287 0 CURVE SMOOTH",
"82 0 OFFCURVE",
"20 186 OFFCURVE",
"20 399 CURVE SMOOTH",
"20 605 OFFCURVE",
"48 800 OFFCURVE",
"287 800 CURVE SMOOTH",
"492 800 OFFCURVE",
"555 605 OFFCURVE",
"555 401 CURVE SMOOTH"
);
},
{
closed = 0;
nodes = (
"348 186 LINE",
"521 -113 LINE"
);
}
);
width = 575;
}
);
unicode = 0051;
},
{
glyphname = R;
lastChange = "2018-09-15 15:05:31 +0000";
layers = (
{
layerId = "6F4F10D2-8254-4335-A627-9F8D8891324D";
paths = (
{
closed = 0;
nodes = (
"20 2 LINE",
"20 800 LINE",
"254 800 LINE SMOOTH",
"284 800 OFFCURVE",
"449 800 OFFCURVE",
"449 603 CURVE SMOOTH",
"449 401 OFFCURVE",
"284 399 OFFCURVE",
"265 399 CURVE SMOOTH",
"42 399 LINE"
);
},
{
closed = 0;
nodes = (
"444 0 LINE",
"265 399 LINE"
);
}
);
width = 469;
},
{
layerId = "25139FCF-725A-49A6-A058-8DCF5AC16622";
paths = (
{
closed = 0;
nodes = (
"20 2 LINE",
"20 800 LINE",
"254 800 LINE SMOOTH",
"284 800 OFFCURVE",
"449 800 OFFCURVE",
"449 603 CURVE SMOOTH",
"449 401 OFFCURVE",
"284 399 OFFCURVE",
"265 399 CURVE SMOOTH",
"42 399 LINE"
);
},
{
closed = 0;
nodes = (
"444 0 LINE",
"265 399 LINE"
);
}
);
width = 469;
},
{
layerId = "1AB63056-1127-463F-B001-FB2AC81901C9";
paths = (
{
closed = 0;
nodes = (
"20 2 LINE",
"20 800 LINE",
"254 800 LINE SMOOTH",
"284 800 OFFCURVE",
"449 800 OFFCURVE",
"449 603 CURVE SMOOTH",
"449 401 OFFCURVE",
"284 399 OFFCURVE",
"265 399 CURVE SMOOTH",
"42 399 LINE"
);
},
{
closed = 0;
nodes = (
"444 0 LINE",
"265 399 LINE"
);
}
);
width = 469;
}
);
unicode = 0052;
},
{
glyphname = S;
lastChange = "2018-09-15 15:05:31 +0000";
layers = (
{
layerId = "6F4F10D2-8254-4335-A627-9F8D8891324D";
paths = (
{
closed = 0;
nodes = (
"539 640 LINE",
"539 640 OFFCURVE",
"490 800 OFFCURVE",
"279 800 CURVE SMOOTH",
"63 800 OFFCURVE",
"20 722 OFFCURVE",
"20 600 CURVE SMOOTH",
"20 477 OFFCURVE",
"118 429 OFFCURVE",
"279 400 CURVE SMOOTH",
"442 371 OFFCURVE",
"541 328 OFFCURVE",
"541 199 CURVE SMOOTH",
"541 75 OFFCURVE",
"497 0 OFFCURVE",
"279 0 CURVE SMOOTH",
"70 0 OFFCURVE",
"21 160 OFFCURVE",
"21 160 CURVE"
);
}
);
width = 561;
},
{
layerId = "25139FCF-725A-49A6-A058-8DCF5AC16622";
paths = (
{
closed = 0;
nodes = (
"539 640 LINE",
"539 640 OFFCURVE",
"490 800 OFFCURVE",
"279 800 CURVE SMOOTH",
"63 800 OFFCURVE",
"20 722 OFFCURVE",
"20 600 CURVE SMOOTH",
"20 477 OFFCURVE",
"118 429 OFFCURVE",
"279 400 CURVE SMOOTH",
"442 371 OFFCURVE",
"541 328 OFFCURVE",
"541 199 CURVE SMOOTH",
"541 75 OFFCURVE",
"497 0 OFFCURVE",
"279 0 CURVE SMOOTH",
"70 0 OFFCURVE",
"21 160 OFFCURVE",
"21 160 CURVE"
);
}
);
width = 561;
},
{
layerId = "1AB63056-1127-463F-B001-FB2AC81901C9";
paths = (
{
closed = 0;
nodes = (
"539 640 LINE",
"539 640 OFFCURVE",
"490 800 OFFCURVE",
"279 800 CURVE SMOOTH",
"63 800 OFFCURVE",
"20 722 OFFCURVE",
"20 600 CURVE SMOOTH",
"20 477 OFFCURVE",
"118 429 OFFCURVE",
"279 400 CURVE SMOOTH",
"442 371 OFFCURVE",
"541 328 OFFCURVE",
"541 199 CURVE SMOOTH",
"541 75 OFFCURVE",
"497 0 OFFCURVE",
"279 0 CURVE SMOOTH",
"70 0 OFFCURVE",
"21 160 OFFCURVE",
"21 160 CURVE"
);
}
);
width = 561;
}
);
unicode = 0053;
},
{
glyphname = T;
lastChange = "2018-09-15 15:05:31 +0000";
layers = (
{
layerId = "6F4F10D2-8254-4335-A627-9F8D8891324D";
paths = (
{
closed = 0;
nodes = (
"20 800 LINE",
"613 800 LINE"
);
},
{
closed = 0;
nodes = (
"319 0 LINE",
"319 800 LINE"
);
}
);
width = 633;
},
{
layerId = "25139FCF-725A-49A6-A058-8DCF5AC16622";
paths = (
{
closed = 0;
nodes = (
"20 800 LINE",
"613 800 LINE"
);
},
{
closed = 0;
nodes = (
"319 0 LINE",
"319 800 LINE"
);
}
);
width = 633;
},
{
layerId = "1AB63056-1127-463F-B001-FB2AC81901C9";
paths = (
{
closed = 0;
nodes = (
"20 800 LINE",
"613 800 LINE"
);
},
{
closed = 0;
nodes = (
"319 0 LINE",
"319 800 LINE"
);
}
);
width = 633;
}
);
unicode = 0054;
},
{
glyphname = U;
lastChange = "2018-09-15 15:05:31 +0000";
layers = (
{
layerId = "6F4F10D2-8254-4335-A627-9F8D8891324D";
paths = (
{
closed = 0;
nodes = (
"532 800 LINE",
"532 256 LINE SMOOTH",
"532 77 OFFCURVE",
"418 0 OFFCURVE",
"276 0 CURVE SMOOTH",
"135 0 OFFCURVE",
"20 77 OFFCURVE",
"20 256 CURVE SMOOTH",
"20 800 LINE"
);
}
);
width = 552;
},
{
layerId = "25139FCF-725A-49A6-A058-8DCF5AC16622";
paths = (
{
closed = 0;
nodes = (
"532 800 LINE",
"532 256 LINE SMOOTH",
"532 77 OFFCURVE",
"418 0 OFFCURVE",
"276 0 CURVE SMOOTH",
"135 0 OFFCURVE",
"20 77 OFFCURVE",
"20 256 CURVE SMOOTH",
"20 800 LINE"
);
}
);
width = 552;
},
{
layerId = "1AB63056-1127-463F-B001-FB2AC81901C9";
paths = (
{
closed = 0;
nodes = (
"532 800 LINE",
"532 256 LINE SMOOTH",
"532 77 OFFCURVE",
"418 0 OFFCURVE",
"276 0 CURVE SMOOTH",
"135 0 OFFCURVE",
"20 77 OFFCURVE",
"20 256 CURVE SMOOTH",
"20 800 LINE"
);
}
);
width = 552;
}
);
unicode = 0055;
},
{
glyphname = V;
lastChange = "2018-09-15 15:05:31 +0000";
layers = (
{
layerId = "6F4F10D2-8254-4335-A627-9F8D8891324D";
paths = (
{
closed = 0;
nodes = (
"20 800 LINE",
"316 0 LINE",
"612 800 LINE"
);
}
);
width = 632;
},
{
layerId = "25139FCF-725A-49A6-A058-8DCF5AC16622";
paths = (
{
closed = 0;
nodes = (
"20 800 LINE",
"316 0 LINE",
"612 800 LINE"
);
}
);
width = 632;
},
{
layerId = "1AB63056-1127-463F-B001-FB2AC81901C9";
paths = (
{
closed = 0;
nodes = (
"20 800 LINE",
"316 0 LINE",
"612 800 LINE"
);
}
);
width = 632;
}
);
unicode = 0056;
},
{
glyphname = W;
lastChange = "2018-09-15 15:05:31 +0000";
layers = (
{
layerId = "6F4F10D2-8254-4335-A627-9F8D8891324D";
paths = (
{
closed = 0;
nodes = (
"20 800 LINE",
"268 0 LINE",
"516 680 LINE",
"764 0 LINE",
"1012 800 LINE"
);
}
);
width = 1032;
},
{
layerId = "25139FCF-725A-49A6-A058-8DCF5AC16622";
paths = (
{
closed = 0;
nodes = (
"20 800 LINE",
"268 0 LINE",
"516 680 LINE",
"764 0 LINE",
"1012 800 LINE"
);
}
);
width = 1032;
},
{
layerId = "1AB63056-1127-463F-B001-FB2AC81901C9";
paths = (
{
closed = 0;
nodes = (
"20 800 LINE",
"268 0 LINE",
"516 680 LINE",
"764 0 LINE",
"1012 800 LINE"
);
}
);
width = 1032;
}
);
unicode = 0057;
},
{
glyphname = X;
lastChange = "2018-09-15 15:05:31 +0000";
layers = (
{
layerId = "6F4F10D2-8254-4335-A627-9F8D8891324D";
paths = (
{
closed = 0;
nodes = (
"20 800 LINE",
"612 0 LINE"
);
},
{
closed = 0;
nodes = (
"20 0 LINE",
"612 800 LINE"
);
}
);
width = 632;
},
{
layerId = "25139FCF-725A-49A6-A058-8DCF5AC16622";
paths = (
{
closed = 0;
nodes = (
"20 800 LINE",
"612 0 LINE"
);
},
{
closed = 0;
nodes = (
"20 0 LINE",
"612 800 LINE"
);
}
);
width = 632;
},
{
layerId = "1AB63056-1127-463F-B001-FB2AC81901C9";
paths = (
{
closed = 0;
nodes = (
"20 800 LINE",
"612 0 LINE"
);
},
{
closed = 0;
nodes = (
"20 0 LINE",
"612 800 LINE"
);
}
);
width = 632;
}
);
unicode = 0058;
},
{
glyphname = Y;
lastChange = "2018-09-15 15:05:31 +0000";
layers = (
{
layerId = "6F4F10D2-8254-4335-A627-9F8D8891324D";
paths = (
{
closed = 0;
nodes = (
"20 800 LINE",
"266 376 LINE",
"510 800 LINE"
);
},
{
closed = 0;
nodes = (
"266 0 LINE",
"266 376 LINE"
);
}
);
width = 530;
},
{
layerId = "25139FCF-725A-49A6-A058-8DCF5AC16622";
paths = (
{
closed = 0;
nodes = (
"20 800 LINE",
"266 376 LINE",
"510 800 LINE"
);
},
{
closed = 0;
nodes = (
"266 0 LINE",
"266 376 LINE"
);
}
);
width = 530;
},
{
layerId = "1AB63056-1127-463F-B001-FB2AC81901C9";
paths = (
{
closed = 0;
nodes = (
"20 800 LINE",
"266 376 LINE",
"510 800 LINE"
);
},
{
closed = 0;
nodes = (
"266 0 LINE",
"266 376 LINE"
);
}
);
width = 530;
}
);
unicode = 0059;
},
{
glyphname = Z;
lastChange = "2018-09-15 15:05:31 +0000";
layers = (
{
layerId = "6F4F10D2-8254-4335-A627-9F8D8891324D";
paths = (
{
closed = 0;
nodes = (
"20 800 LINE",
"571 798 LINE",
"20 0 LINE",
"571 0 LINE"
);
}
);
width = 591;
},
{
layerId = "25139FCF-725A-49A6-A058-8DCF5AC16622";
paths = (
{
closed = 0;
nodes = (
"20 800 LINE",
"571 798 LINE",
"20 0 LINE",
"571 0 LINE"
);
}
);
width = 591;
},
{
layerId = "1AB63056-1127-463F-B001-FB2AC81901C9";
paths = (
{
closed = 0;
nodes = (
"20 800 LINE",
"571 798 LINE",
"20 0 LINE",
"571 0 LINE"
);
}
);
width = 591;
}
);
unicode = 005A;
},
{
glyphname = C.ss01;
lastChange = "2018-09-15 15:05:31 +0000";
layers = (
{
layerId = "6F4F10D2-8254-4335-A627-9F8D8891324D";
paths = (
{
closed = 0;
nodes = (
"718 118 LINE",
"646 45 OFFCURVE",
"546 0 OFFCURVE",
"436 0 CURVE SMOOTH",
"214 0 OFFCURVE",
"20 179 OFFCURVE",
"20 400 CURVE SMOOTH",
"20 621 OFFCURVE",
"214 800 OFFCURVE",
"436 800 CURVE SMOOTH",
"545 800 OFFCURVE",
"644 755 OFFCURVE",
"717 685 CURVE"
);
}
);
width = 738;
},
{
layerId = "25139FCF-725A-49A6-A058-8DCF5AC16622";
paths = (
{
closed = 0;
nodes = (
"718 118 LINE",
"646 45 OFFCURVE",
"546 0 OFFCURVE",
"436 0 CURVE SMOOTH",
"214 0 OFFCURVE",
"20 179 OFFCURVE",
"20 400 CURVE SMOOTH",
"20 621 OFFCURVE",
"214 800 OFFCURVE",
"436 800 CURVE SMOOTH",
"545 800 OFFCURVE",
"644 755 OFFCURVE",
"717 685 CURVE"
);
}
);
width = 738;
},
{
layerId = "1AB63056-1127-463F-B001-FB2AC81901C9";
paths = (
{
closed = 0;
nodes = (
"718 118 LINE",
"646 45 OFFCURVE",
"546 0 OFFCURVE",
"436 0 CURVE SMOOTH",
"214 0 OFFCURVE",
"20 179 OFFCURVE",
"20 400 CURVE SMOOTH",
"20 621 OFFCURVE",
"214 800 OFFCURVE",
"436 800 CURVE SMOOTH",
"545 800 OFFCURVE",
"644 755 OFFCURVE",
"717 685 CURVE"
);
}
);
width = 738;
}
);
},
{
glyphname = C.ss02;
lastChange = "2018-09-15 15:05:31 +0000";
layers = (
{
layerId = "6F4F10D2-8254-4335-A627-9F8D8891324D";
paths = (
{
closed = 0;
nodes = (
"825 182 LINE",
"748 67 OFFCURVE",
"613 0 OFFCURVE",
"458 0 CURVE SMOOTH",
"221 0 OFFCURVE",
"20 179 OFFCURVE",
"20 400 CURVE SMOOTH",
"20 621 OFFCURVE",
"221 800 OFFCURVE",
"458 800 CURVE SMOOTH",
"591 800 OFFCURVE",
"710 744 OFFCURVE",
"789 656 CURVE",
"577 481 LINE"
);
}
);
width = 845;
},
{
layerId = "25139FCF-725A-49A6-A058-8DCF5AC16622";
paths = (
{
closed = 0;
nodes = (
"825 182 LINE",
"748 67 OFFCURVE",
"613 0 OFFCURVE",
"458 0 CURVE SMOOTH",
"221 0 OFFCURVE",
"20 179 OFFCURVE",
"20 400 CURVE SMOOTH",
"20 621 OFFCURVE",
"221 800 OFFCURVE",
"458 800 CURVE SMOOTH",
"591 800 OFFCURVE",
"710 744 OFFCURVE",
"789 656 CURVE",
"577 481 LINE"
);
}
);
width = 845;
},
{
layerId = "1AB63056-1127-463F-B001-FB2AC81901C9";
paths = (
{
closed = 0;
nodes = (
"825 182 LINE",
"748 67 OFFCURVE",
"613 0 OFFCURVE",
"458 0 CURVE SMOOTH",
"221 0 OFFCURVE",
"20 179 OFFCURVE",
"20 400 CURVE SMOOTH",
"20 621 OFFCURVE",
"221 800 OFFCURVE",
"458 800 CURVE SMOOTH",
"591 800 OFFCURVE",
"710 744 OFFCURVE",
"789 656 CURVE",
"577 481 LINE"
);
}
);
width = 845;
}
);
},
{
glyphname = a;
lastChange = "2018-09-15 15:06:40 +0000";
layers = (
{
layerId = "6F4F10D2-8254-4335-A627-9F8D8891324D";
paths = (
{
closed = 0;
nodes = (
"361 86 LINE",
"361 86 OFFCURVE",
"258 0 OFFCURVE",
"166 0 CURVE SMOOTH",
"71 0 OFFCURVE",
"20 83 OFFCURVE",
"20 169 CURVE SMOOTH",
"20 237 OFFCURVE",
"72 326 OFFCURVE",
"173 326 CURVE SMOOTH",
"315 326 OFFCURVE",
"336 280 OFFCURVE",
"363 252 CURVE"
);
},
{
closed = 0;
nodes = (
"35 426 LINE",
"35 426 OFFCURVE",
"85 500 OFFCURVE",
"177 500 CURVE SMOOTH",
"270 500 OFFCURVE",
"365 479 OFFCURVE",
"365 341 CURVE SMOOTH",
"365 0 LINE"
);
}
);
width = 385;
},
{
layerId = "25139FCF-725A-49A6-A058-8DCF5AC16622";
paths = (
{
closed = 0;
nodes = (
"361 86 LINE",
"361 86 OFFCURVE",
"258 0 OFFCURVE",
"166 0 CURVE SMOOTH",
"71 0 OFFCURVE",
"20 83 OFFCURVE",
"20 169 CURVE SMOOTH",
"20 237 OFFCURVE",
"72 326 OFFCURVE",
"173 326 CURVE SMOOTH",
"315 326 OFFCURVE",
"336 280 OFFCURVE",
"363 252 CURVE"
);
},
{
closed = 0;
nodes = (
"35 426 LINE",
"35 426 OFFCURVE",
"85 500 OFFCURVE",
"177 500 CURVE SMOOTH",
"270 500 OFFCURVE",
"365 479 OFFCURVE",
"365 341 CURVE SMOOTH",
"365 0 LINE"
);
}
);
width = 385;
},
{
layerId = "1AB63056-1127-463F-B001-FB2AC81901C9";
paths = (
{
closed = 0;
nodes = (
"361 86 LINE",
"361 86 OFFCURVE",
"258 0 OFFCURVE",
"166 0 CURVE SMOOTH",
"71 0 OFFCURVE",
"20 83 OFFCURVE",
"20 169 CURVE SMOOTH",
"20 237 OFFCURVE",
"72 326 OFFCURVE",
"173 326 CURVE SMOOTH",
"315 326 OFFCURVE",
"336 280 OFFCURVE",
"363 252 CURVE"
);
},
{
closed = 0;
nodes = (
"35 426 LINE",
"35 426 OFFCURVE",
"85 500 OFFCURVE",
"177 500 CURVE SMOOTH",
"270 500 OFFCURVE",
"365 479 OFFCURVE",
"365 341 CURVE SMOOTH",
"365 0 LINE"
);
}
);
width = 385;
}
);
unicode = 0061;
},
{
glyphname = b;
lastChange = "2018-09-15 15:05:31 +0000";
layers = (
{
layerId = "6F4F10D2-8254-4335-A627-9F8D8891324D";
paths = (
{
closed = 0;
nodes = (
"20 700 LINE",
"20 0 LINE"
);
},
{
closed = 0;
nodes = (
"26 74 LINE",
"26 74 OFFCURVE",
"61 0 OFFCURVE",
"177 0 CURVE SMOOTH",
"295 0 OFFCURVE",
"370 84 OFFCURVE",
"370 251 CURVE SMOOTH",
"370 351 OFFCURVE",
"295 500 OFFCURVE",
"177 500 CURVE SMOOTH",
"61 500 OFFCURVE",
"26 426 OFFCURVE",
"26 426 CURVE"
);
}
);
width = 390;
},
{
layerId = "25139FCF-725A-49A6-A058-8DCF5AC16622";
paths = (
{
closed = 0;
nodes = (
"20 700 LINE",
"20 0 LINE"
);
},
{
closed = 0;
nodes = (
"26 74 LINE",
"26 74 OFFCURVE",
"61 0 OFFCURVE",
"177 0 CURVE SMOOTH",
"295 0 OFFCURVE",
"370 84 OFFCURVE",
"370 251 CURVE SMOOTH",
"370 351 OFFCURVE",
"295 500 OFFCURVE",
"177 500 CURVE SMOOTH",
"61 500 OFFCURVE",
"26 426 OFFCURVE",
"26 426 CURVE"
);
}
);
width = 390;
},
{
layerId = "1AB63056-1127-463F-B001-FB2AC81901C9";
paths = (
{
closed = 0;
nodes = (
"20 700 LINE",
"20 0 LINE"
);
},
{
closed = 0;
nodes = (
"26 74 LINE",
"26 74 OFFCURVE",
"61 0 OFFCURVE",
"177 0 CURVE SMOOTH",
"295 0 OFFCURVE",
"370 84 OFFCURVE",
"370 251 CURVE SMOOTH",
"370 351 OFFCURVE",
"295 500 OFFCURVE",
"177 500 CURVE SMOOTH",
"61 500 OFFCURVE",
"26 426 OFFCURVE",
"26 426 CURVE"
);
}
);
width = 390;
}
);
unicode = 0062;
},
{
glyphname = c;
lastChange = "2018-09-15 15:05:31 +0000";
layers = (
{
layerId = "6F4F10D2-8254-4335-A627-9F8D8891324D";
paths = (
{
closed = 0;
nodes = (
"356 384 LINE",
"376 426 LINE",
"376 426 OFFCURVE",
"351 500 OFFCURVE",
"214 500 CURVE SMOOTH",
"71 500 OFFCURVE",
"20 354 OFFCURVE",
"20 251 CURVE SMOOTH",
"20 136 OFFCURVE",
"71 0 OFFCURVE",
"214 0 CURVE SMOOTH",
"279 0 OFFCURVE",
"324 26 OFFCURVE",
"350 48 CURVE"
);
}
);
width = 539;
},
{
layerId = "25139FCF-725A-49A6-A058-8DCF5AC16622";
paths = (
{
closed = 0;
nodes = (
"356 384 LINE",
"376 426 LINE",
"376 426 OFFCURVE",
"351 500 OFFCURVE",
"214 500 CURVE SMOOTH",
"71 500 OFFCURVE",
"20 354 OFFCURVE",
"20 251 CURVE SMOOTH",
"20 136 OFFCURVE",
"71 0 OFFCURVE",
"214 0 CURVE SMOOTH",
"279 0 OFFCURVE",
"324 26 OFFCURVE",
"350 48 CURVE"
);
}
);
width = 539;
},
{
layerId = "1AB63056-1127-463F-B001-FB2AC81901C9";
paths = (
{
closed = 0;
nodes = (
"356 384 LINE",
"376 426 LINE",
"376 426 OFFCURVE",
"351 500 OFFCURVE",
"214 500 CURVE SMOOTH",
"71 500 OFFCURVE",
"20 354 OFFCURVE",
"20 251 CURVE SMOOTH",
"20 136 OFFCURVE",
"71 0 OFFCURVE",
"214 0 CURVE SMOOTH",
"279 0 OFFCURVE",
"324 26 OFFCURVE",
"350 48 CURVE"
);
}
);
width = 539;
}
);
unicode = 0063;
},
{
glyphname = d;
lastChange = "2018-09-15 15:05:31 +0000";
layers = (
{
layerId = "6F4F10D2-8254-4335-A627-9F8D8891324D";
paths = (
{
closed = 0;
nodes = (
"370 700 LINE",
"370 0 LINE"
);
},
{
closed = 0;
nodes = (
"364 74 LINE",
"364 74 OFFCURVE",
"330 0 OFFCURVE",
"213 0 CURVE SMOOTH",
"96 0 OFFCURVE",
"20 85 OFFCURVE",
"20 250 CURVE SMOOTH",
"20 352 OFFCURVE",
"96 500 OFFCURVE",
"213 500 CURVE SMOOTH",
"330 500 OFFCURVE",
"364 426 OFFCURVE",
"364 426 CURVE"
);
}
);
width = 390;
},
{
layerId = "25139FCF-725A-49A6-A058-8DCF5AC16622";
paths = (
{
closed = 0;
nodes = (
"370 700 LINE",
"370 0 LINE"
);
},
{
closed = 0;
nodes = (
"364 74 LINE",
"364 74 OFFCURVE",
"330 0 OFFCURVE",
"213 0 CURVE SMOOTH",
"96 0 OFFCURVE",
"20 85 OFFCURVE",
"20 250 CURVE SMOOTH",
"20 352 OFFCURVE",
"96 500 OFFCURVE",
"213 500 CURVE SMOOTH",
"330 500 OFFCURVE",
"364 426 OFFCURVE",
"364 426 CURVE"
);
}
);
width = 390;
},
{
layerId = "1AB63056-1127-463F-B001-FB2AC81901C9";
paths = (
{
closed = 0;
nodes = (
"370 700 LINE",
"370 0 LINE"
);
},
{
closed = 0;
nodes = (
"364 74 LINE",
"364 74 OFFCURVE",
"330 0 OFFCURVE",
"213 0 CURVE SMOOTH",
"96 0 OFFCURVE",
"20 85 OFFCURVE",
"20 250 CURVE SMOOTH",
"20 352 OFFCURVE",
"96 500 OFFCURVE",
"213 500 CURVE SMOOTH",
"330 500 OFFCURVE",
"364 426 OFFCURVE",
"364 426 CURVE"
);
}
);
width = 390;
}
);
unicode = 0064;
},
{
glyphname = e;
lastChange = "2018-09-15 15:05:31 +0000";
layers = (
{
layerId = "6F4F10D2-8254-4335-A627-9F8D8891324D";
paths = (
{
closed = 0;
nodes = (
"20 250 LINE",
"394 250 LINE",
"394 250 OFFCURVE",
"419 500 OFFCURVE",
"215 500 CURVE SMOOTH",
"72 500 OFFCURVE",
"20 354 OFFCURVE",
"20 250 CURVE SMOOTH",
"20 136 OFFCURVE",
"72 0 OFFCURVE",
"215 0 CURVE SMOOTH",
"279 0 OFFCURVE",
"324 27 OFFCURVE",
"350 48 CURVE"
);
}
);
width = 409;
},
{
layerId = "25139FCF-725A-49A6-A058-8DCF5AC16622";
paths = (
{
closed = 0;
nodes = (
"20 250 LINE",
"394 250 LINE",
"394 250 OFFCURVE",
"419 500 OFFCURVE",
"215 500 CURVE SMOOTH",
"72 500 OFFCURVE",
"20 354 OFFCURVE",
"20 250 CURVE SMOOTH",
"20 136 OFFCURVE",
"72 0 OFFCURVE",
"215 0 CURVE SMOOTH",
"279 0 OFFCURVE",
"324 27 OFFCURVE",
"350 48 CURVE"
);
}
);
width = 409;
},
{
layerId = "1AB63056-1127-463F-B001-FB2AC81901C9";
paths = (
{
closed = 0;
nodes = (
"20 250 LINE",
"394 250 LINE",
"394 250 OFFCURVE",
"419 500 OFFCURVE",
"215 500 CURVE SMOOTH",
"72 500 OFFCURVE",
"20 354 OFFCURVE",
"20 250 CURVE SMOOTH",
"20 136 OFFCURVE",
"72 0 OFFCURVE",
"215 0 CURVE SMOOTH",
"279 0 OFFCURVE",
"324 27 OFFCURVE",
"350 48 CURVE"
);
}
);
width = 409;
}
);
unicode = 0065;
},
{
glyphname = f;
lastChange = "2018-09-15 15:05:31 +0000";
layers = (
{
layerId = "6F4F10D2-8254-4335-A627-9F8D8891324D";
paths = (
{
closed = 0;
nodes = (
"202 418 LINE",
"27 418 LINE"
);
},
{
closed = 0;
nodes = (
"20 0 LINE",
"20 0 OFFCURVE",
"20 279 OFFCURVE",
"20 421 CURVE SMOOTH",
"20 524 LINE SMOOTH",
"20 597 OFFCURVE",
"17 700 OFFCURVE",
"126 700 CURVE SMOOTH",
"175 700 OFFCURVE",
"208 685 OFFCURVE",
"231 664 CURVE"
);
}
);
width = 251;
},
{
layerId = "25139FCF-725A-49A6-A058-8DCF5AC16622";
paths = (
{
closed = 0;
nodes = (
"202 418 LINE",
"27 418 LINE"
);
},
{
closed = 0;
nodes = (
"20 0 LINE",
"20 0 OFFCURVE",
"20 279 OFFCURVE",
"20 421 CURVE SMOOTH",
"20 524 LINE SMOOTH",
"20 597 OFFCURVE",
"17 700 OFFCURVE",
"126 700 CURVE SMOOTH",
"175 700 OFFCURVE",
"208 685 OFFCURVE",
"231 664 CURVE"
);
}
);
width = 251;
},
{
layerId = "1AB63056-1127-463F-B001-FB2AC81901C9";
paths = (
{
closed = 0;
nodes = (
"202 418 LINE",
"27 418 LINE"
);
},
{
closed = 0;
nodes = (
"20 0 LINE",
"20 0 OFFCURVE",
"20 279 OFFCURVE",
"20 421 CURVE SMOOTH",
"20 524 LINE SMOOTH",
"20 597 OFFCURVE",
"17 700 OFFCURVE",
"126 700 CURVE SMOOTH",
"175 700 OFFCURVE",
"208 685 OFFCURVE",
"231 664 CURVE"
);
}
);
width = 251;
}
);
unicode = 0066;
},
{
glyphname = g;
lastChange = "2018-09-15 15:05:31 +0000";
layers = (
{
layerId = "6F4F10D2-8254-4335-A627-9F8D8891324D";
paths = (
{
closed = 0;
nodes = (
"364 425 LINE",
"364 425 OFFCURVE",
"329 500 OFFCURVE",
"213 500 CURVE SMOOTH",
"83 500 OFFCURVE",
"20 415 OFFCURVE",
"20 249 CURVE SMOOTH",
"20 123 OFFCURVE",
"81 0 OFFCURVE",
"213 0 CURVE SMOOTH",
"329 0 OFFCURVE",
"364 73 OFFCURVE",
"364 73 CURVE"
);
},
{
closed = 0;
nodes = (
"366 500 LINE",
"366 500 OFFCURVE",
"366 169 OFFCURVE",
"366 0 CURVE SMOOTH",
"366 -121 LINE SMOOTH",
"366 -208 OFFCURVE",
"369 -331 OFFCURVE",
"239 -331 CURVE SMOOTH",
"123 -331 OFFCURVE",
"81 -261 OFFCURVE",
"65 -198 CURVE"
);
}
);
width = 386;
},
{
layerId = "25139FCF-725A-49A6-A058-8DCF5AC16622";
paths = (
{
closed = 0;
nodes = (
"364 425 LINE",
"364 425 OFFCURVE",
"329 500 OFFCURVE",
"213 500 CURVE SMOOTH",
"83 500 OFFCURVE",
"20 415 OFFCURVE",
"20 249 CURVE SMOOTH",
"20 123 OFFCURVE",
"81 0 OFFCURVE",
"213 0 CURVE SMOOTH",
"329 0 OFFCURVE",
"364 73 OFFCURVE",
"364 73 CURVE"
);
},
{
closed = 0;
nodes = (
"366 500 LINE",
"366 500 OFFCURVE",
"366 169 OFFCURVE",
"366 0 CURVE SMOOTH",
"366 -121 LINE SMOOTH",
"366 -208 OFFCURVE",
"369 -331 OFFCURVE",
"239 -331 CURVE SMOOTH",
"123 -331 OFFCURVE",
"81 -261 OFFCURVE",
"65 -198 CURVE"
);
}
);
width = 386;
},
{
layerId = "1AB63056-1127-463F-B001-FB2AC81901C9";
paths = (
{
closed = 0;
nodes = (
"364 425 LINE",
"364 425 OFFCURVE",
"329 500 OFFCURVE",
"213 500 CURVE SMOOTH",
"83 500 OFFCURVE",
"20 415 OFFCURVE",
"20 249 CURVE SMOOTH",
"20 123 OFFCURVE",
"81 0 OFFCURVE",
"213 0 CURVE SMOOTH",
"329 0 OFFCURVE",
"364 73 OFFCURVE",
"364 73 CURVE"
);
},
{
closed = 0;
nodes = (
"366 500 LINE",
"366 500 OFFCURVE",
"366 169 OFFCURVE",
"366 0 CURVE SMOOTH",
"366 -121 LINE SMOOTH",
"366 -208 OFFCURVE",
"369 -331 OFFCURVE",
"239 -331 CURVE SMOOTH",
"123 -331 OFFCURVE",
"81 -261 OFFCURVE",
"65 -198 CURVE"
);
}
);
width = 386;
}
);
unicode = 0067;
},
{
glyphname = h;
lastChange = "2018-09-15 15:05:31 +0000";
layers = (
{
layerId = "6F4F10D2-8254-4335-A627-9F8D8891324D";
paths = (
{
closed = 0;
nodes = (
"0.354 0 LINE",
"0 700 LINE"
);
},
{
closed = 0;
nodes = (
"3 397 LINE",
"3 397 OFFCURVE",
"66 500 OFFCURVE",
"171 500 CURVE",
"294 500 OFFCURVE",
"336 458 OFFCURVE",
"336 400 CURVE",
"336 333 OFFCURVE",
"336 0 OFFCURVE",
"336 0 CURVE"
);
}
);
width = 600;
},
{
layerId = "25139FCF-725A-49A6-A058-8DCF5AC16622";
paths = (
{
closed = 0;
nodes = (
"0.354 0 LINE",
"0 700 LINE"
);
},
{
closed = 0;
nodes = (
"3 397 LINE",
"3 397 OFFCURVE",
"66 500 OFFCURVE",
"171 500 CURVE",
"294 500 OFFCURVE",
"336 458 OFFCURVE",
"336 400 CURVE",
"336 333 OFFCURVE",
"336 0 OFFCURVE",
"336 0 CURVE"
);
}
);
width = 600;
},
{
layerId = "1AB63056-1127-463F-B001-FB2AC81901C9";
paths = (
{
closed = 0;
nodes = (
"0.354 0 LINE",
"0 700 LINE"
);
},
{
closed = 0;
nodes = (
"3 397 LINE",
"3 397 OFFCURVE",
"66 500 OFFCURVE",
"171 500 CURVE",
"294 500 OFFCURVE",
"336 458 OFFCURVE",
"336 400 CURVE",
"336 333 OFFCURVE",
"336 0 OFFCURVE",
"336 0 CURVE"
);
}
);
width = 600;
}
);
unicode = 0068;
},
{
glyphname = i;
lastChange = "2018-09-15 15:05:31 +0000";
layers = (
{
layerId = "6F4F10D2-8254-4335-A627-9F8D8891324D";
paths = (
{
closed = 0;
nodes = (
"20 0 LINE",
"20 500 LINE"
);
},
{
closed = 0;
nodes = (
"20 667 LINE"
);
}
);
width = 40;
},
{
layerId = "25139FCF-725A-49A6-A058-8DCF5AC16622";
paths = (
{
closed = 0;
nodes = (
"20 0 LINE",
"20 500 LINE"
);
},
{
closed = 0;
nodes = (
"20 667 LINE"
);
}
);
width = 40;
},
{
layerId = "1AB63056-1127-463F-B001-FB2AC81901C9";
paths = (
{
closed = 0;
nodes = (
"20 0 LINE",
"20 500 LINE"
);
},
{
closed = 0;
nodes = (
"20 667 LINE"
);
}
);
width = 40;
}
);
unicode = 0069;
},
{
glyphname = j;
lastChange = "2018-09-15 15:05:31 +0000";
layers = (
{
layerId = "6F4F10D2-8254-4335-A627-9F8D8891324D";
paths = (
{
closed = 0;
nodes = (
"264 500 LINE",
"264 500 OFFCURVE",
"264 157 OFFCURVE",
"264 -8 CURVE SMOOTH",
"264 -126 LINE SMOOTH",
"264 -210 OFFCURVE",
"267 -330 OFFCURVE",
"142 -330 CURVE SMOOTH",
"87 -330 OFFCURVE",
"48 -314 OFFCURVE",
"20 -290 CURVE"
);
}
);
width = 284;
},
{
layerId = "25139FCF-725A-49A6-A058-8DCF5AC16622";
paths = (
{
closed = 0;
nodes = (
"264 500 LINE",
"264 500 OFFCURVE",
"264 157 OFFCURVE",
"264 -8 CURVE SMOOTH",
"264 -126 LINE SMOOTH",
"264 -210 OFFCURVE",
"267 -330 OFFCURVE",
"142 -330 CURVE SMOOTH",
"87 -330 OFFCURVE",
"48 -314 OFFCURVE",
"20 -290 CURVE"
);
}
);
width = 284;
},
{
layerId = "1AB63056-1127-463F-B001-FB2AC81901C9";
paths = (
{
closed = 0;
nodes = (
"264 500 LINE",
"264 500 OFFCURVE",
"264 157 OFFCURVE",
"264 -8 CURVE SMOOTH",
"264 -126 LINE SMOOTH",
"264 -210 OFFCURVE",
"267 -330 OFFCURVE",
"142 -330 CURVE SMOOTH",
"87 -330 OFFCURVE",
"48 -314 OFFCURVE",
"20 -290 CURVE"
);
}
);
width = 284;
}
);
unicode = 006A;
},
{
glyphname = k;
lastChange = "2018-09-15 15:05:31 +0000";
layers = (
{
layerId = "6F4F10D2-8254-4335-A627-9F8D8891324D";
paths = (
{
closed = 0;
nodes = (
"20 0 LINE",
"20 700 LINE"
);
},
{
closed = 0;
nodes = (
"312 500 LINE",
"20 208 LINE"
);
},
{
closed = 0;
nodes = (
"312 0 LINE",
"145 292 LINE"
);
}
);
width = 332;
},
{
layerId = "25139FCF-725A-49A6-A058-8DCF5AC16622";
paths = (
{
closed = 0;
nodes = (
"20 0 LINE",
"20 700 LINE"
);
},
{
closed = 0;
nodes = (
"312 500 LINE",
"20 208 LINE"
);
},
{
closed = 0;
nodes = (
"312 0 LINE",
"145 292 LINE"
);
}
);
width = 332;
},
{
layerId = "1AB63056-1127-463F-B001-FB2AC81901C9";
paths = (
{
closed = 0;
nodes = (
"20 0 LINE",
"20 700 LINE"
);
},
{
closed = 0;
nodes = (
"312 500 LINE",
"20 208 LINE"
);
},
{
closed = 0;
nodes = (
"312 0 LINE",
"145 292 LINE"
);
}
);
width = 332;
}
);
unicode = 006B;
},
{
glyphname = l;
lastChange = "2018-09-15 15:05:31 +0000";
layers = (
{
layerId = "6F4F10D2-8254-4335-A627-9F8D8891324D";
paths = (
{
closed = 0;
nodes = (
"20 700 LINE",
"20 0 LINE"
);
}
);
width = 40;
},
{
layerId = "25139FCF-725A-49A6-A058-8DCF5AC16622";
paths = (
{
closed = 0;
nodes = (
"20 700 LINE",
"20 0 LINE"
);
}
);
width = 40;
},
{
layerId = "1AB63056-1127-463F-B001-FB2AC81901C9";
paths = (
{
closed = 0;
nodes = (
"20 700 LINE",
"20 0 LINE"
);
}
);
width = 40;
}
);
unicode = 006C;
},
{
glyphname = m;
lastChange = "2018-09-15 15:05:31 +0000";
layers = (
{
layerId = "6F4F10D2-8254-4335-A627-9F8D8891324D";
paths = (
{
closed = 0;
nodes = (
"20 0 LINE",
"20 499 LINE"
);
},
{
closed = 0;
nodes = (
"20 397 LINE",
"20 397 OFFCURVE",
"104 500 OFFCURVE",
"188 500 CURVE SMOOTH",
"312 500 OFFCURVE",
"353 458 OFFCURVE",
"353 400 CURVE SMOOTH",
"353 0 LINE"
);
},
{
closed = 0;
nodes = (
"353 397 LINE",
"353 397 OFFCURVE",
"436 500 OFFCURVE",
"521 500 CURVE SMOOTH",
"644 500 OFFCURVE",
"686 458 OFFCURVE",
"686 400 CURVE SMOOTH",
"686 0 LINE"
);
}
);
width = 706;
},
{
layerId = "25139FCF-725A-49A6-A058-8DCF5AC16622";
paths = (
{
closed = 0;
nodes = (
"20 0 LINE",
"20 499 LINE"
);
},
{
closed = 0;
nodes = (
"20 397 LINE",
"20 397 OFFCURVE",
"104 500 OFFCURVE",
"188 500 CURVE SMOOTH",
"312 500 OFFCURVE",
"353 458 OFFCURVE",
"353 400 CURVE SMOOTH",
"353 0 LINE"
);
},
{
closed = 0;
nodes = (
"353 397 LINE",
"353 397 OFFCURVE",
"436 500 OFFCURVE",
"521 500 CURVE SMOOTH",
"644 500 OFFCURVE",
"686 458 OFFCURVE",
"686 400 CURVE SMOOTH",
"686 0 LINE"
);
}
);
width = 706;
},
{
layerId = "1AB63056-1127-463F-B001-FB2AC81901C9";
paths = (
{
closed = 0;
nodes = (
"20 0 LINE",
"20 499 LINE"
);
},
{
closed = 0;
nodes = (
"20 397 LINE",
"20 397 OFFCURVE",
"104 500 OFFCURVE",
"188 500 CURVE SMOOTH",
"312 500 OFFCURVE",
"353 458 OFFCURVE",
"353 400 CURVE SMOOTH",
"353 0 LINE"
);
},
{
closed = 0;
nodes = (
"353 397 LINE",
"353 397 OFFCURVE",
"436 500 OFFCURVE",
"521 500 CURVE SMOOTH",
"644 500 OFFCURVE",
"686 458 OFFCURVE",
"686 400 CURVE SMOOTH",
"686 0 LINE"
);
}
);
width = 706;
}
);
unicode = 006D;
},
{
glyphname = n;
lastChange = "2018-09-15 15:05:31 +0000";
layers = (
{
layerId = "6F4F10D2-8254-4335-A627-9F8D8891324D";
paths = (
{
closed = 0;
nodes = (
"0.354 0 LINE",
"0 500 LINE"
);
},
{
closed = 0;
nodes = (
"0 397 LINE",
"0 397 OFFCURVE",
"84 500 OFFCURVE",
"168 500 CURVE SMOOTH",
"292 500 OFFCURVE",
"333 458 OFFCURVE",
"333 400 CURVE SMOOTH",
"333 0 LINE"
);
}
);
width = 600;
},
{
layerId = "25139FCF-725A-49A6-A058-8DCF5AC16622";
paths = (
{
closed = 0;
nodes = (
"0.354 0 LINE",
"0 500 LINE"
);
},
{
closed = 0;
nodes = (
"0 397 LINE",
"0 397 OFFCURVE",
"84 500 OFFCURVE",
"168 500 CURVE SMOOTH",
"292 500 OFFCURVE",
"333 458 OFFCURVE",
"333 400 CURVE SMOOTH",
"333 0 LINE"
);
}
);
width = 600;
},
{
layerId = "1AB63056-1127-463F-B001-FB2AC81901C9";
paths = (
{
closed = 0;
nodes = (
"0.354 0 LINE",
"0 500 LINE"
);
},
{
closed = 0;
nodes = (
"0 397 LINE",
"0 397 OFFCURVE",
"84 500 OFFCURVE",
"168 500 CURVE SMOOTH",
"292 500 OFFCURVE",
"333 458 OFFCURVE",
"333 400 CURVE SMOOTH",
"333 0 LINE"
);
}
);
width = 600;
}
);
unicode = 006E;
},
{
glyphname = o;
lastChange = "2018-09-15 15:05:31 +0000";
layers = (
{
layerId = "6F4F10D2-8254-4335-A627-9F8D8891324D";
paths = (
{
closed = 1;
nodes = (
"433 77 OFFCURVE",
"340 0 OFFCURVE",
"226 0 CURVE SMOOTH",
"112 0 OFFCURVE",
"20 77 OFFCURVE",
"20 250 CURVE SMOOTH",
"20 424 OFFCURVE",
"112 500 OFFCURVE",
"226 500 CURVE SMOOTH",
"340 500 OFFCURVE",
"433 424 OFFCURVE",
"433 250 CURVE SMOOTH"
);
}
);
width = 453;
},
{
layerId = "25139FCF-725A-49A6-A058-8DCF5AC16622";
paths = (
{
closed = 1;
nodes = (
"433 77 OFFCURVE",
"340 0 OFFCURVE",
"226 0 CURVE SMOOTH",
"112 0 OFFCURVE",
"20 77 OFFCURVE",
"20 250 CURVE SMOOTH",
"20 424 OFFCURVE",
"112 500 OFFCURVE",
"226 500 CURVE SMOOTH",
"340 500 OFFCURVE",
"433 424 OFFCURVE",
"433 250 CURVE SMOOTH"
);
}
);
width = 453;
},
{
layerId = "1AB63056-1127-463F-B001-FB2AC81901C9";
paths = (
{
closed = 1;
nodes = (
"433 77 OFFCURVE",
"340 0 OFFCURVE",
"226 0 CURVE SMOOTH",
"112 0 OFFCURVE",
"20 77 OFFCURVE",
"20 250 CURVE SMOOTH",
"20 424 OFFCURVE",
"112 500 OFFCURVE",
"226 500 CURVE SMOOTH",
"340 500 OFFCURVE",
"433 424 OFFCURVE",
"433 250 CURVE SMOOTH"
);
}
);
width = 453;
}
);
unicode = 006F;
},
{
glyphname = oe;
lastChange = "2018-09-15 15:05:31 +0000";
layers = (
{
layerId = "6F4F10D2-8254-4335-A627-9F8D8891324D";
paths = (
{
closed = 0;
nodes = (
"399 251 LINE",
"766 251 LINE",
"766 251 OFFCURVE",
"798 500 OFFCURVE",
"593 500 CURVE SMOOTH",
"504 500 OFFCURVE",
"450 443 OFFCURVE",
"422 374 CURVE SMOOTH",
"406 334 OFFCURVE",
"399 289 OFFCURVE",
"399 251 CURVE SMOOTH",
"399 209 OFFCURVE",
"405 164 OFFCURVE",
"421 125 CURVE SMOOTH",
"448 55 OFFCURVE",
"502 0 OFFCURVE",
"593 0 CURVE SMOOTH",
"657 0 OFFCURVE",
"703 27 OFFCURVE",
"729 48 CURVE"
);
},
{
closed = 0;
nodes = (
"412 125 LINE",
"379 39 OFFCURVE",
"308 0 OFFCURVE",
"227 0 CURVE SMOOTH",
"113 0 OFFCURVE",
"20 77 OFFCURVE",
"20 250 CURVE SMOOTH",
"20 424 OFFCURVE",
"113 499 OFFCURVE",
"227 499 CURVE SMOOTH",
"308 499 OFFCURVE",
"379 461 OFFCURVE",
"412 374 CURVE"
);
}
);
width = 788;
},
{
layerId = "25139FCF-725A-49A6-A058-8DCF5AC16622";
paths = (
{
closed = 0;
nodes = (
"399 251 LINE",
"766 251 LINE",
"766 251 OFFCURVE",
"798 500 OFFCURVE",
"593 500 CURVE SMOOTH",
"504 500 OFFCURVE",
"450 443 OFFCURVE",
"422 374 CURVE SMOOTH",
"406 334 OFFCURVE",
"399 289 OFFCURVE",
"399 251 CURVE SMOOTH",
"399 209 OFFCURVE",
"405 164 OFFCURVE",
"421 125 CURVE SMOOTH",
"448 55 OFFCURVE",
"502 0 OFFCURVE",
"593 0 CURVE SMOOTH",
"657 0 OFFCURVE",
"703 27 OFFCURVE",
"729 48 CURVE"
);
},
{
closed = 0;
nodes = (
"412 125 LINE",
"379 39 OFFCURVE",
"308 0 OFFCURVE",
"227 0 CURVE SMOOTH",
"113 0 OFFCURVE",
"20 77 OFFCURVE",
"20 250 CURVE SMOOTH",
"20 424 OFFCURVE",
"113 499 OFFCURVE",
"227 499 CURVE SMOOTH",
"308 499 OFFCURVE",
"379 461 OFFCURVE",
"412 374 CURVE"
);
}
);
width = 788;
},
{
layerId = "1AB63056-1127-463F-B001-FB2AC81901C9";
paths = (
{
closed = 0;
nodes = (
"399 251 LINE",
"766 251 LINE",
"766 251 OFFCURVE",
"798 500 OFFCURVE",
"593 500 CURVE SMOOTH",
"504 500 OFFCURVE",
"450 443 OFFCURVE",
"422 374 CURVE SMOOTH",
"406 334 OFFCURVE",
"399 289 OFFCURVE",
"399 251 CURVE SMOOTH",
"399 209 OFFCURVE",
"405 164 OFFCURVE",
"421 125 CURVE SMOOTH",
"448 55 OFFCURVE",
"502 0 OFFCURVE",
"593 0 CURVE SMOOTH",
"657 0 OFFCURVE",
"703 27 OFFCURVE",
"729 48 CURVE"
);
},
{
closed = 0;
nodes = (
"412 125 LINE",
"379 39 OFFCURVE",
"308 0 OFFCURVE",
"227 0 CURVE SMOOTH",
"113 0 OFFCURVE",
"20 77 OFFCURVE",
"20 250 CURVE SMOOTH",
"20 424 OFFCURVE",
"113 499 OFFCURVE",
"227 499 CURVE SMOOTH",
"308 499 OFFCURVE",
"379 461 OFFCURVE",
"412 374 CURVE"
);
}
);
width = 788;
}
);
unicode = 0153;
},
{
glyphname = p;
lastChange = "2018-09-15 15:05:31 +0000";
layers = (
{
layerId = "6F4F10D2-8254-4335-A627-9F8D8891324D";
paths = (
{
closed = 0;
nodes = (
"21 -330 LINE",
"20 500 LINE"
);
},
{
closed = 0;
nodes = (
"27 425 LINE",
"27 425 OFFCURVE",
"62 500 OFFCURVE",
"178 500 CURVE SMOOTH",
"294 500 OFFCURVE",
"371 415 OFFCURVE",
"371 251 CURVE SMOOTH",
"371 149 OFFCURVE",
"294 0 OFFCURVE",
"178 0 CURVE SMOOTH",
"62 0 OFFCURVE",
"27 75 OFFCURVE",
"27 75 CURVE"
);
}
);
width = 391;
},
{
layerId = "25139FCF-725A-49A6-A058-8DCF5AC16622";
paths = (
{
closed = 0;
nodes = (
"21 -330 LINE",
"20 500 LINE"
);
},
{
closed = 0;
nodes = (
"27 425 LINE",
"27 425 OFFCURVE",
"62 500 OFFCURVE",
"178 500 CURVE SMOOTH",
"294 500 OFFCURVE",
"371 415 OFFCURVE",
"371 251 CURVE SMOOTH",
"371 149 OFFCURVE",
"294 0 OFFCURVE",
"178 0 CURVE SMOOTH",
"62 0 OFFCURVE",
"27 75 OFFCURVE",
"27 75 CURVE"
);
}
);
width = 391;
},
{
layerId = "1AB63056-1127-463F-B001-FB2AC81901C9";
paths = (
{
closed = 0;
nodes = (
"21 -330 LINE",
"20 500 LINE"
);
},
{
closed = 0;
nodes = (
"27 425 LINE",
"27 425 OFFCURVE",
"62 500 OFFCURVE",
"178 500 CURVE SMOOTH",
"294 500 OFFCURVE",
"371 415 OFFCURVE",
"371 251 CURVE SMOOTH",
"371 149 OFFCURVE",
"294 0 OFFCURVE",
"178 0 CURVE SMOOTH",
"62 0 OFFCURVE",
"27 75 OFFCURVE",
"27 75 CURVE"
);
}
);
width = 391;
}
);
unicode = 0070;
},
{
glyphname = q;
lastChange = "2018-09-15 15:05:31 +0000";
layers = (
{
layerId = "6F4F10D2-8254-4335-A627-9F8D8891324D";
paths = (
{
closed = 0;
nodes = (
"370 -330 LINE",
"370 500 LINE"
);
},
{
closed = 0;
nodes = (
"364 425 LINE",
"364 425 OFFCURVE",
"329 500 OFFCURVE",
"213 500 CURVE SMOOTH",
"96 500 OFFCURVE",
"20 415 OFFCURVE",
"20 251 CURVE SMOOTH",
"20 150 OFFCURVE",
"96 0 OFFCURVE",
"213 0 CURVE SMOOTH",
"329 0 OFFCURVE",
"364 75 OFFCURVE",
"364 75 CURVE"
);
}
);
width = 390;
},
{
layerId = "25139FCF-725A-49A6-A058-8DCF5AC16622";
paths = (
{
closed = 0;
nodes = (
"370 -330 LINE",
"370 500 LINE"
);
},
{
closed = 0;
nodes = (
"364 425 LINE",
"364 425 OFFCURVE",
"329 500 OFFCURVE",
"213 500 CURVE SMOOTH",
"96 500 OFFCURVE",
"20 415 OFFCURVE",
"20 251 CURVE SMOOTH",
"20 150 OFFCURVE",
"96 0 OFFCURVE",
"213 0 CURVE SMOOTH",
"329 0 OFFCURVE",
"364 75 OFFCURVE",
"364 75 CURVE"
);
}
);
width = 390;
},
{
layerId = "1AB63056-1127-463F-B001-FB2AC81901C9";
paths = (
{
closed = 0;
nodes = (
"370 -330 LINE",
"370 500 LINE"
);
},
{
closed = 0;
nodes = (
"364 425 LINE",
"364 425 OFFCURVE",
"329 500 OFFCURVE",
"213 500 CURVE SMOOTH",
"96 500 OFFCURVE",
"20 415 OFFCURVE",
"20 251 CURVE SMOOTH",
"20 150 OFFCURVE",
"96 0 OFFCURVE",
"213 0 CURVE SMOOTH",
"329 0 OFFCURVE",
"364 75 OFFCURVE",
"364 75 CURVE"
);
}
);
width = 390;
}
);
unicode = 0071;
},
{
glyphname = r;
lastChange = "2018-09-15 15:05:31 +0000";
layers = (
{
layerId = "6F4F10D2-8254-4335-A627-9F8D8891324D";
paths = (
{
closed = 0;
nodes = (
"20 0 LINE",
"20 500 LINE"
);
},
{
closed = 0;
nodes = (
"20 423 LINE",
"20 423 OFFCURVE",
"84 500 OFFCURVE",
"188 500 CURVE SMOOTH",
"293 500 OFFCURVE",
"367 443 OFFCURVE",
"367 400 CURVE",
"353 336 LINE"
);
}
);
width = 387;
},
{
layerId = "25139FCF-725A-49A6-A058-8DCF5AC16622";
paths = (
{
closed = 0;
nodes = (
"20 0 LINE",
"20 500 LINE"
);
},
{
closed = 0;
nodes = (
"20 423 LINE",
"20 423 OFFCURVE",
"84 500 OFFCURVE",
"188 500 CURVE SMOOTH",
"293 500 OFFCURVE",
"367 443 OFFCURVE",
"367 400 CURVE",
"353 336 LINE"
);
}
);
width = 387;
},
{
layerId = "1AB63056-1127-463F-B001-FB2AC81901C9";
paths = (
{
closed = 0;
nodes = (
"20 0 LINE",
"20 500 LINE"
);
},
{
closed = 0;
nodes = (
"20 423 LINE",
"20 423 OFFCURVE",
"84 500 OFFCURVE",
"188 500 CURVE SMOOTH",
"293 500 OFFCURVE",
"367 443 OFFCURVE",
"367 400 CURVE",
"353 336 LINE"
);
}
);
width = 387;
}
);
unicode = 0072;
},
{
glyphname = s;
lastChange = "2018-09-15 15:05:31 +0000";
layers = (
{
layerId = "6F4F10D2-8254-4335-A627-9F8D8891324D";
paths = (
{
closed = 0;
nodes = (
"354 417 LINE",
"354 417 OFFCURVE",
"312 500 OFFCURVE",
"196 500 CURVE SMOOTH",
"60 500 OFFCURVE",
"20 458 OFFCURVE",
"20 375 CURVE SMOOTH",
"20 292 OFFCURVE",
"86 268 OFFCURVE",
"187 250 CURVE SMOOTH",
"288 232 OFFCURVE",
"354 206 OFFCURVE",
"354 125 CURVE SMOOTH",
"354 48 OFFCURVE",
"312 0 OFFCURVE",
"196 0 CURVE SMOOTH",
"62 0 OFFCURVE",
"20 83 OFFCURVE",
"20 83 CURVE"
);
}
);
width = 374;
},
{
layerId = "25139FCF-725A-49A6-A058-8DCF5AC16622";
paths = (
{
closed = 0;
nodes = (
"354 417 LINE",
"354 417 OFFCURVE",
"312 500 OFFCURVE",
"196 500 CURVE SMOOTH",
"60 500 OFFCURVE",
"20 458 OFFCURVE",
"20 375 CURVE SMOOTH",
"20 292 OFFCURVE",
"86 268 OFFCURVE",
"187 250 CURVE SMOOTH",
"288 232 OFFCURVE",
"354 206 OFFCURVE",
"354 125 CURVE SMOOTH",
"354 48 OFFCURVE",
"312 0 OFFCURVE",
"196 0 CURVE SMOOTH",
"62 0 OFFCURVE",
"20 83 OFFCURVE",
"20 83 CURVE"
);
}
);
width = 374;
},
{
layerId = "1AB63056-1127-463F-B001-FB2AC81901C9";
paths = (
{
closed = 0;
nodes = (
"354 417 LINE",
"354 417 OFFCURVE",
"312 500 OFFCURVE",
"196 500 CURVE SMOOTH",
"60 500 OFFCURVE",
"20 458 OFFCURVE",
"20 375 CURVE SMOOTH",
"20 292 OFFCURVE",
"86 268 OFFCURVE",
"187 250 CURVE SMOOTH",
"288 232 OFFCURVE",
"354 206 OFFCURVE",
"354 125 CURVE SMOOTH",
"354 48 OFFCURVE",
"312 0 OFFCURVE",
"196 0 CURVE SMOOTH",
"62 0 OFFCURVE",
"20 83 OFFCURVE",
"20 83 CURVE"
);
}
);
width = 374;
}
);
unicode = 0073;
},
{
glyphname = t;
lastChange = "2018-09-15 15:05:31 +0000";
layers = (
{
layerId = "6F4F10D2-8254-4335-A627-9F8D8891324D";
paths = (
{
closed = 0;
nodes = (
"185 420 LINE",
"10 418 LINE"
);
},
{
closed = 0;
nodes = (
"3 700 LINE",
"3 700 OFFCURVE",
"3 421 OFFCURVE",
"3 279 CURVE SMOOTH",
"3 176 LINE SMOOTH",
"3 103 OFFCURVE",
"-0.096 0 OFFCURVE",
"109 0 CURVE SMOOTH",
"158 0 OFFCURVE",
"191 14 OFFCURVE",
"214 36 CURVE"
);
}
);
width = 600;
},
{
layerId = "25139FCF-725A-49A6-A058-8DCF5AC16622";
paths = (
{
closed = 0;
nodes = (
"185 420 LINE",
"10 418 LINE"
);
},
{
closed = 0;
nodes = (
"3 700 LINE",
"3 700 OFFCURVE",
"3 421 OFFCURVE",
"3 279 CURVE SMOOTH",
"3 176 LINE SMOOTH",
"3 103 OFFCURVE",
"-0.096 0 OFFCURVE",
"109 0 CURVE SMOOTH",
"158 0 OFFCURVE",
"191 14 OFFCURVE",
"214 36 CURVE"
);
}
);
width = 600;
},
{
layerId = "1AB63056-1127-463F-B001-FB2AC81901C9";
paths = (
{
closed = 0;
nodes = (
"185 420 LINE",
"10 418 LINE"
);
},
{
closed = 0;
nodes = (
"3 700 LINE",
"3 700 OFFCURVE",
"3 421 OFFCURVE",
"3 279 CURVE SMOOTH",
"3 176 LINE SMOOTH",
"3 103 OFFCURVE",
"-0.096 0 OFFCURVE",
"109 0 CURVE SMOOTH",
"158 0 OFFCURVE",
"191 14 OFFCURVE",
"214 36 CURVE"
);
}
);
width = 600;
}
);
unicode = 0074;
},
{
glyphname = u;
lastChange = "2018-09-15 15:05:31 +0000";
layers = (
{
layerId = "6F4F10D2-8254-4335-A627-9F8D8891324D";
paths = (
{
closed = 0;
nodes = (
"333 500 LINE",
"333 1 LINE"
);
},
{
closed = 0;
nodes = (
"333 103 LINE",
"333 103 OFFCURVE",
"250 0 OFFCURVE",
"165 0 CURVE SMOOTH",
"42 0 OFFCURVE",
"0 42 OFFCURVE",
"0 100 CURVE SMOOTH",
"0 500 LINE"
);
}
);
width = 600;
},
{
layerId = "25139FCF-725A-49A6-A058-8DCF5AC16622";
paths = (
{
closed = 0;
nodes = (
"333 500 LINE",
"333 1 LINE"
);
},
{
closed = 0;
nodes = (
"333 103 LINE",
"333 103 OFFCURVE",
"250 0 OFFCURVE",
"165 0 CURVE SMOOTH",
"42 0 OFFCURVE",
"0 42 OFFCURVE",
"0 100 CURVE SMOOTH",
"0 500 LINE"
);
}
);
width = 600;
},
{
layerId = "1AB63056-1127-463F-B001-FB2AC81901C9";
paths = (
{
closed = 0;
nodes = (
"333 500 LINE",
"333 1 LINE"
);
},
{
closed = 0;
nodes = (
"333 103 LINE",
"333 103 OFFCURVE",
"250 0 OFFCURVE",
"165 0 CURVE SMOOTH",
"42 0 OFFCURVE",
"0 42 OFFCURVE",
"0 100 CURVE SMOOTH",
"0 500 LINE"
);
}
);
width = 600;
}
);
unicode = 0075;
},
{
glyphname = v;
lastChange = "2018-09-15 15:05:31 +0000";
layers = (
{
layerId = "6F4F10D2-8254-4335-A627-9F8D8891324D";
paths = (
{
closed = 0;
nodes = (
"20 500 LINE",
"229 0 LINE",
"437 500 LINE"
);
}
);
width = 457;
},
{
layerId = "25139FCF-725A-49A6-A058-8DCF5AC16622";
paths = (
{
closed = 0;
nodes = (
"20 500 LINE",
"229 0 LINE",
"437 500 LINE"
);
}
);
width = 457;
},
{
layerId = "1AB63056-1127-463F-B001-FB2AC81901C9";
paths = (
{
closed = 0;
nodes = (
"20 500 LINE",
"229 0 LINE",
"437 500 LINE"
);
}
);
width = 457;
}
);
unicode = 0076;
},
{
glyphname = w;
lastChange = "2018-09-15 15:05:31 +0000";
layers = (
{
layerId = "6F4F10D2-8254-4335-A627-9F8D8891324D";
paths = (
{
closed = 0;
nodes = (
"20 500 LINE",
"187 0 LINE",
"354 500 LINE",
"520 0 LINE",
"687 500 LINE"
);
}
);
width = 707;
},
{
layerId = "25139FCF-725A-49A6-A058-8DCF5AC16622";
paths = (
{
closed = 0;
nodes = (
"20 500 LINE",
"187 0 LINE",
"354 500 LINE",
"520 0 LINE",
"687 500 LINE"
);
}
);
width = 707;
},
{
layerId = "1AB63056-1127-463F-B001-FB2AC81901C9";
paths = (
{
closed = 0;
nodes = (
"20 500 LINE",
"187 0 LINE",
"354 500 LINE",
"520 0 LINE",
"687 500 LINE"
);
}
);
width = 707;
}
);
unicode = 0077;
},
{
glyphname = x;
lastChange = "2018-09-15 15:05:31 +0000";
layers = (
{
layerId = "6F4F10D2-8254-4335-A627-9F8D8891324D";
paths = (
{
closed = 0;
nodes = (
"20 500 LINE",
"395 0 LINE"
);
},
{
closed = 0;
nodes = (
"20 0 LINE",
"395 500 LINE"
);
}
);
width = 415;
},
{
layerId = "25139FCF-725A-49A6-A058-8DCF5AC16622";
paths = (
{
closed = 0;
nodes = (
"20 500 LINE",
"395 0 LINE"
);
},
{
closed = 0;
nodes = (
"20 0 LINE",
"395 500 LINE"
);
}
);
width = 415;
},
{
layerId = "1AB63056-1127-463F-B001-FB2AC81901C9";
paths = (
{
closed = 0;
nodes = (
"20 500 LINE",
"395 0 LINE"
);
},
{
closed = 0;
nodes = (
"20 0 LINE",
"395 500 LINE"
);
}
);
width = 415;
}
);
unicode = 0078;
},
{
glyphname = y;
lastChange = "2018-09-15 15:05:31 +0000";
layers = (
{
layerId = "6F4F10D2-8254-4335-A627-9F8D8891324D";
paths = (
{
closed = 0;
nodes = (
"20 500 LINE",
"228 44 LINE"
);
},
{
closed = 0;
nodes = (
"477 500 LINE",
"62 -330 LINE"
);
}
);
width = 497;
},
{
layerId = "25139FCF-725A-49A6-A058-8DCF5AC16622";
paths = (
{
closed = 0;
nodes = (
"20 500 LINE",
"228 44 LINE"
);
},
{
closed = 0;
nodes = (
"477 500 LINE",
"62 -330 LINE"
);
}
);
width = 497;
},
{
layerId = "1AB63056-1127-463F-B001-FB2AC81901C9";
paths = (
{
closed = 0;
nodes = (
"20 500 LINE",
"228 44 LINE"
);
},
{
closed = 0;
nodes = (
"477 500 LINE",
"62 -330 LINE"
);
}
);
width = 497;
}
);
unicode = 0079;
},
{
glyphname = z;
lastChange = "2018-09-15 15:05:31 +0000";
layers = (
{
layerId = "6F4F10D2-8254-4335-A627-9F8D8891324D";
paths = (
{
closed = 0;
nodes = (
"20 500 LINE",
"395 500 LINE",
"20 0 LINE",
"395 0 LINE"
);
}
);
width = 415;
},
{
layerId = "25139FCF-725A-49A6-A058-8DCF5AC16622";
paths = (
{
closed = 0;
nodes = (
"20 500 LINE",
"395 500 LINE",
"20 0 LINE",
"395 0 LINE"
);
}
);
width = 415;
},
{
layerId = "1AB63056-1127-463F-B001-FB2AC81901C9";
paths = (
{
closed = 0;
nodes = (
"20 500 LINE",
"395 500 LINE",
"20 0 LINE",
"395 0 LINE"
);
}
);
width = 415;
}
);
unicode = 007A;
},
{
glyphname = a.ss01;
lastChange = "2018-09-15 15:05:31 +0000";
layers = (
{
layerId = "6F4F10D2-8254-4335-A627-9F8D8891324D";
paths = (
{
closed = 0;
nodes = (
"362 86 LINE",
"362 86 OFFCURVE",
"259 0 OFFCURVE",
"167 0 CURVE SMOOTH",
"72 0 OFFCURVE",
"20 83 OFFCURVE",
"20 169 CURVE SMOOTH",
"20 237 OFFCURVE",
"72 326 OFFCURVE",
"174 326 CURVE SMOOTH",
"316 326 OFFCURVE",
"337 280 OFFCURVE",
"363 252 CURVE"
);
},
{
closed = 0;
nodes = (
"35 426 LINE",
"35 426 OFFCURVE",
"85 500 OFFCURVE",
"178 500 CURVE SMOOTH",
"270 500 OFFCURVE",
"365 479 OFFCURVE",
"365 341 CURVE SMOOTH",
"365 75 LINE",
"425 0 LINE"
);
}
);
width = 445;
},
{
layerId = "25139FCF-725A-49A6-A058-8DCF5AC16622";
paths = (
{
closed = 0;
nodes = (
"362 86 LINE",
"362 86 OFFCURVE",
"259 0 OFFCURVE",
"167 0 CURVE SMOOTH",
"72 0 OFFCURVE",
"20 83 OFFCURVE",
"20 169 CURVE SMOOTH",
"20 237 OFFCURVE",
"72 326 OFFCURVE",
"174 326 CURVE SMOOTH",
"316 326 OFFCURVE",
"337 280 OFFCURVE",
"363 252 CURVE"
);
},
{
closed = 0;
nodes = (
"35 426 LINE",
"35 426 OFFCURVE",
"85 500 OFFCURVE",
"178 500 CURVE SMOOTH",
"270 500 OFFCURVE",
"365 479 OFFCURVE",
"365 341 CURVE SMOOTH",
"365 75 LINE",
"425 0 LINE"
);
}
);
width = 445;
},
{
layerId = "1AB63056-1127-463F-B001-FB2AC81901C9";
paths = (
{
closed = 0;
nodes = (
"362 86 LINE",
"362 86 OFFCURVE",
"259 0 OFFCURVE",
"167 0 CURVE SMOOTH",
"72 0 OFFCURVE",
"20 83 OFFCURVE",
"20 169 CURVE SMOOTH",
"20 237 OFFCURVE",
"72 326 OFFCURVE",
"174 326 CURVE SMOOTH",
"316 326 OFFCURVE",
"337 280 OFFCURVE",
"363 252 CURVE"
);
},
{
closed = 0;
nodes = (
"35 426 LINE",
"35 426 OFFCURVE",
"85 500 OFFCURVE",
"178 500 CURVE SMOOTH",
"270 500 OFFCURVE",
"365 479 OFFCURVE",
"365 341 CURVE SMOOTH",
"365 75 LINE",
"425 0 LINE"
);
}
);
width = 445;
}
);
},
{
glyphname = m.ss01;
lastChange = "2018-09-15 15:05:31 +0000";
layers = (
{
layerId = "6F4F10D2-8254-4335-A627-9F8D8891324D";
paths = (
{
closed = 0;
nodes = (
"62 0 LINE",
"62 417 LINE",
"20 500 LINE"
);
},
{
closed = 0;
nodes = (
"62 397 LINE",
"62 397 OFFCURVE",
"145 500 OFFCURVE",
"230 500 CURVE SMOOTH",
"353 500 OFFCURVE",
"394 458 OFFCURVE",
"394 400 CURVE SMOOTH",
"394 0 LINE"
);
},
{
closed = 0;
nodes = (
"394 397 LINE",
"394 397 OFFCURVE",
"478 500 OFFCURVE",
"562 500 CURVE SMOOTH",
"686 500 OFFCURVE",
"727 458 OFFCURVE",
"727 400 CURVE SMOOTH",
"727 0 LINE"
);
}
);
width = 747;
},
{
layerId = "25139FCF-725A-49A6-A058-8DCF5AC16622";
paths = (
{
closed = 0;
nodes = (
"62 0 LINE",
"62 417 LINE",
"20 500 LINE"
);
},
{
closed = 0;
nodes = (
"62 397 LINE",
"62 397 OFFCURVE",
"145 500 OFFCURVE",
"230 500 CURVE SMOOTH",
"353 500 OFFCURVE",
"394 458 OFFCURVE",
"394 400 CURVE SMOOTH",
"394 0 LINE"
);
},
{
closed = 0;
nodes = (
"394 397 LINE",
"394 397 OFFCURVE",
"478 500 OFFCURVE",
"562 500 CURVE SMOOTH",
"686 500 OFFCURVE",
"727 458 OFFCURVE",
"727 400 CURVE SMOOTH",
"727 0 LINE"
);
}
);
width = 747;
},
{
layerId = "1AB63056-1127-463F-B001-FB2AC81901C9";
paths = (
{
closed = 0;
nodes = (
"62 0 LINE",
"62 417 LINE",
"20 500 LINE"
);
},
{
closed = 0;
nodes = (
"62 397 LINE",
"62 397 OFFCURVE",
"145 500 OFFCURVE",
"230 500 CURVE SMOOTH",
"353 500 OFFCURVE",
"394 458 OFFCURVE",
"394 400 CURVE SMOOTH",
"394 0 LINE"
);
},
{
closed = 0;
nodes = (
"394 397 LINE",
"394 397 OFFCURVE",
"478 500 OFFCURVE",
"562 500 CURVE SMOOTH",
"686 500 OFFCURVE",
"727 458 OFFCURVE",
"727 400 CURVE SMOOTH",
"727 0 LINE"
);
}
);
width = 747;
}
);
},
{
glyphname = n.ss01;
lastChange = "2018-09-15 15:05:31 +0000";
layers = (
{
layerId = "6F4F10D2-8254-4335-A627-9F8D8891324D";
paths = (
{
closed = 0;
nodes = (
"62 0 LINE",
"62 417 LINE",
"20 500 LINE"
);
},
{
closed = 0;
nodes = (
"62 397 LINE",
"62 397 OFFCURVE",
"145 500 OFFCURVE",
"230 500 CURVE SMOOTH",
"353 500 OFFCURVE",
"394 458 OFFCURVE",
"394 400 CURVE SMOOTH",
"394 0 LINE"
);
},
{
closed = 0;
nodes = (
"394 397 LINE"
);
}
);
width = 414;
},
{
layerId = "25139FCF-725A-49A6-A058-8DCF5AC16622";
paths = (
{
closed = 0;
nodes = (
"62 0 LINE",
"62 417 LINE",
"20 500 LINE"
);
},
{
closed = 0;
nodes = (
"62 397 LINE",
"62 397 OFFCURVE",
"145 500 OFFCURVE",
"230 500 CURVE SMOOTH",
"353 500 OFFCURVE",
"394 458 OFFCURVE",
"394 400 CURVE SMOOTH",
"394 0 LINE"
);
},
{
closed = 0;
nodes = (
"394 397 LINE"
);
}
);
width = 414;
},
{
layerId = "1AB63056-1127-463F-B001-FB2AC81901C9";
paths = (
{
closed = 0;
nodes = (
"62 0 LINE",
"62 417 LINE",
"20 500 LINE"
);
},
{
closed = 0;
nodes = (
"62 397 LINE",
"62 397 OFFCURVE",
"145 500 OFFCURVE",
"230 500 CURVE SMOOTH",
"353 500 OFFCURVE",
"394 458 OFFCURVE",
"394 400 CURVE SMOOTH",
"394 0 LINE"
);
},
{
closed = 0;
nodes = (
"394 397 LINE"
);
}
);
width = 414;
}
);
},
{
glyphname = p.ss01;
lastChange = "2018-09-15 15:05:31 +0000";
layers = (
{
layerId = "6F4F10D2-8254-4335-A627-9F8D8891324D";
paths = (
{
closed = 0;
nodes = (
"83 -300 LINE",
"83 418 LINE",
"0 500 LINE"
);
},
{
closed = 0;
nodes = (
"90 427 LINE",
"90 427 OFFCURVE",
"123 500 OFFCURVE",
"242 500 CURVE SMOOTH",
"358 500 OFFCURVE",
"435 417 OFFCURVE",
"435 250 CURVE SMOOTH",
"435 148 OFFCURVE",
"358 0 OFFCURVE",
"242 0 CURVE SMOOTH",
"123 0 OFFCURVE",
"90 73 OFFCURVE",
"90 73 CURVE"
);
}
);
width = 600;
},
{
layerId = "25139FCF-725A-49A6-A058-8DCF5AC16622";
paths = (
{
closed = 0;
nodes = (
"83 -300 LINE",
"83 418 LINE",
"0 500 LINE"
);
},
{
closed = 0;
nodes = (
"90 427 LINE",
"90 427 OFFCURVE",
"123 500 OFFCURVE",
"242 500 CURVE SMOOTH",
"358 500 OFFCURVE",
"435 417 OFFCURVE",
"435 250 CURVE SMOOTH",
"435 148 OFFCURVE",
"358 0 OFFCURVE",
"242 0 CURVE SMOOTH",
"123 0 OFFCURVE",
"90 73 OFFCURVE",
"90 73 CURVE"
);
}
);
width = 600;
},
{
layerId = "1AB63056-1127-463F-B001-FB2AC81901C9";
paths = (
{
closed = 0;
nodes = (
"83 -300 LINE",
"83 418 LINE",
"0 500 LINE"
);
},
{
closed = 0;
nodes = (
"90 427 LINE",
"90 427 OFFCURVE",
"123 500 OFFCURVE",
"242 500 CURVE SMOOTH",
"358 500 OFFCURVE",
"435 417 OFFCURVE",
"435 250 CURVE SMOOTH",
"435 148 OFFCURVE",
"358 0 OFFCURVE",
"242 0 CURVE SMOOTH",
"123 0 OFFCURVE",
"90 73 OFFCURVE",
"90 73 CURVE"
);
}
);
width = 600;
}
);
},
{
glyphname = r.ss01;
lastChange = "2018-09-15 15:05:31 +0000";
layers = (
{
layerId = "6F4F10D2-8254-4335-A627-9F8D8891324D";
paths = (
{
closed = 0;
nodes = (
"80 0 LINE",
"80 423 LINE",
"20 498 LINE"
);
},
{
closed = 0;
nodes = (
"80 423 LINE",
"80 423 OFFCURVE",
"143 500 OFFCURVE",
"248 500 CURVE SMOOTH",
"353 500 OFFCURVE",
"427 443 OFFCURVE",
"427 400 CURVE",
"385 336 LINE"
);
}
);
width = 447;
},
{
layerId = "25139FCF-725A-49A6-A058-8DCF5AC16622";
paths = (
{
closed = 0;
nodes = (
"80 0 LINE",
"80 423 LINE",
"20 498 LINE"
);
},
{
closed = 0;
nodes = (
"80 423 LINE",
"80 423 OFFCURVE",
"143 500 OFFCURVE",
"248 500 CURVE SMOOTH",
"353 500 OFFCURVE",
"427 443 OFFCURVE",
"427 400 CURVE",
"385 336 LINE"
);
}
);
width = 447;
},
{
layerId = "1AB63056-1127-463F-B001-FB2AC81901C9";
paths = (
{
closed = 0;
nodes = (
"80 0 LINE",
"80 423 LINE",
"20 498 LINE"
);
},
{
closed = 0;
nodes = (
"80 423 LINE",
"80 423 OFFCURVE",
"143 500 OFFCURVE",
"248 500 CURVE SMOOTH",
"353 500 OFFCURVE",
"427 443 OFFCURVE",
"427 400 CURVE",
"385 336 LINE"
);
}
);
width = 447;
}
);
},
{
glyphname = y.ss01;
lastChange = "2018-09-15 15:18:11 +0000";
layers = (
{
layerId = "6F4F10D2-8254-4335-A627-9F8D8891324D";
paths = (
{
closed = 0;
nodes = (
"60 -300 LINE",
"60 -300 OFFCURVE",
"172 -188 OFFCURVE",
"228 -28 CURVE",
"284 100 OFFCURVE",
"412 500 OFFCURVE",
"412 500 CURVE"
);
},
{
closed = 0;
nodes = (
"20 500 LINE",
"260 68 LINE"
);
}
);
width = 432;
},
{
layerId = "25139FCF-725A-49A6-A058-8DCF5AC16622";
width = 600;
},
{
layerId = "1AB63056-1127-463F-B001-FB2AC81901C9";
width = 600;
}
);
},
{
glyphname = a.ss02;
lastChange = "2018-10-02 14:25:21 +0000";
layers = (
{
layerId = "6F4F10D2-8254-4335-A627-9F8D8891324D";
paths = (
{
closed = 0;
nodes = (
"69 500 LINE",
"500 500 LINE",
"604 0 LINE"
);
},
{
closed = 1;
nodes = (
"533 86 OFFCURVE",
"422 0 OFFCURVE",
"285 0 CURVE SMOOTH",
"148 0 OFFCURVE",
"20 86 OFFCURVE",
"20 192 CURVE SMOOTH",
"20 299 OFFCURVE",
"148 385 OFFCURVE",
"285 385 CURVE SMOOTH",
"422 385 OFFCURVE",
"533 299 OFFCURVE",
"533 192 CURVE SMOOTH"
);
}
);
width = 624;
},
{
layerId = "25139FCF-725A-49A6-A058-8DCF5AC16622";
paths = (
{
closed = 0;
nodes = (
"69 500 LINE",
"500 500 LINE",
"604 0 LINE"
);
},
{
closed = 1;
nodes = (
"533 86 OFFCURVE",
"422 0 OFFCURVE",
"285 0 CURVE SMOOTH",
"148 0 OFFCURVE",
"20 86 OFFCURVE",
"20 192 CURVE SMOOTH",
"20 299 OFFCURVE",
"148 385 OFFCURVE",
"285 385 CURVE SMOOTH",
"422 385 OFFCURVE",
"533 299 OFFCURVE",
"533 192 CURVE SMOOTH"
);
}
);
width = 624;
},
{
layerId = "1AB63056-1127-463F-B001-FB2AC81901C9";
paths = (
{
closed = 0;
nodes = (
"69 500 LINE",
"500 500 LINE",
"604 0 LINE"
);
},
{
closed = 1;
nodes = (
"533 86 OFFCURVE",
"422 0 OFFCURVE",
"285 0 CURVE SMOOTH",
"148 0 OFFCURVE",
"20 86 OFFCURVE",
"20 192 CURVE SMOOTH",
"20 299 OFFCURVE",
"148 385 OFFCURVE",
"285 385 CURVE SMOOTH",
"422 385 OFFCURVE",
"533 299 OFFCURVE",
"533 192 CURVE SMOOTH"
);
}
);
width = 624;
},
{
associatedMasterId = "6F4F10D2-8254-4335-A627-9F8D8891324D";
layerId = "BA2081B9-5BBF-433A-8BDE-4C1EB6A4A23C";
name = "Oct 2 18, 16:24";
paths = (
{
closed = 1;
nodes = (
"510 500 LINE",
"500 500 LINE",
"69 500 LINE",
"69 480 LINE",
"500 480 LINE",
"490 496 LINE",
"594 0 LINE",
"614 4 LINE"
);
},
{
closed = 1;
nodes = (
"551 90 OFFCURVE",
"456 20 OFFCURVE",
"313 20 CURVE SMOOTH",
"173 20 OFFCURVE",
"58 98 OFFCURVE",
"58 192 CURVE SMOOTH",
"58 291 OFFCURVE",
"171 370 OFFCURVE",
"313 370 CURVE SMOOTH",
"447 370 OFFCURVE",
"551 292 OFFCURVE",
"551 192 CURVE SMOOTH"
);
},
{
closed = 1;
nodes = (
"571 306 OFFCURVE",
"461 390 OFFCURVE",
"313 390 CURVE SMOOTH",
"164 390 OFFCURVE",
"38 300 OFFCURVE",
"38 192 CURVE SMOOTH",
"38 80 OFFCURVE",
"155 0 OFFCURVE",
"313 0 CURVE SMOOTH",
"459 0 OFFCURVE",
"571 83 OFFCURVE",
"571 192 CURVE SMOOTH"
);
}
);
width = 624;
}
);
},
{
glyphname = m.ss02;
lastChange = "2018-09-15 15:05:31 +0000";
layers = (
{
layerId = "6F4F10D2-8254-4335-A627-9F8D8891324D";
paths = (
{
closed = 0;
nodes = (
"20 500 LINE",
"112 500 LINE",
"112 0 LINE"
);
},
{
closed = 0;
nodes = (
"128 417 LINE",
"128 417 OFFCURVE",
"195 500 OFFCURVE",
"462 500 CURVE SMOOTH",
"478 500 OFFCURVE",
"520 492 OFFCURVE",
"520 450 CURVE SMOOTH",
"520 0 LINE"
);
},
{
closed = 0;
nodes = (
"520 417 LINE",
"520 417 OFFCURVE",
"587 500 OFFCURVE",
"862 500 CURVE SMOOTH",
"878 500 OFFCURVE",
"912 492 OFFCURVE",
"912 450 CURVE SMOOTH",
"912 0 LINE"
);
}
);
width = 932;
},
{
layerId = "25139FCF-725A-49A6-A058-8DCF5AC16622";
paths = (
{
closed = 0;
nodes = (
"20 500 LINE",
"112 500 LINE",
"112 0 LINE"
);
},
{
closed = 0;
nodes = (
"128 417 LINE",
"128 417 OFFCURVE",
"195 500 OFFCURVE",
"462 500 CURVE SMOOTH",
"478 500 OFFCURVE",
"520 492 OFFCURVE",
"520 450 CURVE SMOOTH",
"520 0 LINE"
);
},
{
closed = 0;
nodes = (
"520 417 LINE",
"520 417 OFFCURVE",
"587 500 OFFCURVE",
"862 500 CURVE SMOOTH",
"878 500 OFFCURVE",
"912 492 OFFCURVE",
"912 450 CURVE SMOOTH",
"912 0 LINE"
);
}
);
width = 932;
},
{
layerId = "1AB63056-1127-463F-B001-FB2AC81901C9";
paths = (
{
closed = 0;
nodes = (
"20 500 LINE",
"112 500 LINE",
"112 0 LINE"
);
},
{
closed = 0;
nodes = (
"128 417 LINE",
"128 417 OFFCURVE",
"195 500 OFFCURVE",
"462 500 CURVE SMOOTH",
"478 500 OFFCURVE",
"520 492 OFFCURVE",
"520 450 CURVE SMOOTH",
"520 0 LINE"
);
},
{
closed = 0;
nodes = (
"520 417 LINE",
"520 417 OFFCURVE",
"587 500 OFFCURVE",
"862 500 CURVE SMOOTH",
"878 500 OFFCURVE",
"912 492 OFFCURVE",
"912 450 CURVE SMOOTH",
"912 0 LINE"
);
}
);
width = 932;
}
);
},
{
glyphname = f_f;
lastChange = "2018-09-15 15:05:31 +0000";
layers = (
{
layerId = "6F4F10D2-8254-4335-A627-9F8D8891324D";
paths = (
{
closed = 0;
nodes = (
"20 0 LINE",
"20 0 OFFCURVE",
"20 279 OFFCURVE",
"20 421 CURVE SMOOTH",
"20 524 LINE SMOOTH",
"20 597 OFFCURVE",
"17 700 OFFCURVE",
"125 700 CURVE SMOOTH",
"174 700 OFFCURVE",
"208 686 OFFCURVE",
"231 664 CURVE"
);
},
{
closed = 0;
nodes = (
"413 420 LINE",
"20 421 LINE"
);
},
{
closed = 0;
nodes = (
"231 0 LINE",
"231 0 OFFCURVE",
"231 279 OFFCURVE",
"231 421 CURVE SMOOTH",
"231 524 LINE SMOOTH",
"231 597 OFFCURVE",
"228 700 OFFCURVE",
"336 700 CURVE SMOOTH",
"385 700 OFFCURVE",
"419 686 OFFCURVE",
"442 664 CURVE"
);
}
);
width = 462;
},
{
layerId = "25139FCF-725A-49A6-A058-8DCF5AC16622";
paths = (
{
closed = 0;
nodes = (
"20 0 LINE",
"20 0 OFFCURVE",
"20 279 OFFCURVE",
"20 421 CURVE SMOOTH",
"20 524 LINE SMOOTH",
"20 597 OFFCURVE",
"17 700 OFFCURVE",
"125 700 CURVE SMOOTH",
"174 700 OFFCURVE",
"208 686 OFFCURVE",
"231 664 CURVE"
);
},
{
closed = 0;
nodes = (
"413 420 LINE",
"20 421 LINE"
);
},
{
closed = 0;
nodes = (
"231 0 LINE",
"231 0 OFFCURVE",
"231 279 OFFCURVE",
"231 421 CURVE SMOOTH",
"231 524 LINE SMOOTH",
"231 597 OFFCURVE",
"228 700 OFFCURVE",
"336 700 CURVE SMOOTH",
"385 700 OFFCURVE",
"419 686 OFFCURVE",
"442 664 CURVE"
);
}
);
width = 462;
},
{
layerId = "1AB63056-1127-463F-B001-FB2AC81901C9";
paths = (
{
closed = 0;
nodes = (
"20 0 LINE",
"20 0 OFFCURVE",
"20 279 OFFCURVE",
"20 421 CURVE SMOOTH",
"20 524 LINE SMOOTH",
"20 597 OFFCURVE",
"17 700 OFFCURVE",
"125 700 CURVE SMOOTH",
"174 700 OFFCURVE",
"208 686 OFFCURVE",
"231 664 CURVE"
);
},
{
closed = 0;
nodes = (
"413 420 LINE",
"20 421 LINE"
);
},
{
closed = 0;
nodes = (
"231 0 LINE",
"231 0 OFFCURVE",
"231 279 OFFCURVE",
"231 421 CURVE SMOOTH",
"231 524 LINE SMOOTH",
"231 597 OFFCURVE",
"228 700 OFFCURVE",
"336 700 CURVE SMOOTH",
"385 700 OFFCURVE",
"419 686 OFFCURVE",
"442 664 CURVE"
);
}
);
width = 462;
}
);
},
{
glyphname = f_f_l;
lastChange = "2018-09-15 15:05:31 +0000";
layers = (
{
layerId = "6F4F10D2-8254-4335-A627-9F8D8891324D";
paths = (
{
closed = 0;
nodes = (
"20 0 LINE",
"20 0 OFFCURVE",
"20 279 OFFCURVE",
"20 421 CURVE SMOOTH",
"20 524 LINE SMOOTH",
"20 597 OFFCURVE",
"17 700 OFFCURVE",
"125 700 CURVE SMOOTH",
"174 700 OFFCURVE",
"208 686 OFFCURVE",
"231 664 CURVE"
);
},
{
closed = 0;
nodes = (
"336 420 LINE",
"20 421 LINE"
);
},
{
closed = 0;
nodes = (
"231 0 LINE",
"231 0 OFFCURVE",
"231 279 OFFCURVE",
"231 421 CURVE SMOOTH",
"231 524 LINE SMOOTH",
"231 597 OFFCURVE",
"228 700 OFFCURVE",
"336 700 CURVE SMOOTH",
"385 700 OFFCURVE",
"419 686 OFFCURVE",
"442 664 CURVE",
"442 0 LINE"
);
}
);
width = 462;
},
{
layerId = "25139FCF-725A-49A6-A058-8DCF5AC16622";
paths = (
{
closed = 0;
nodes = (
"20 0 LINE",
"20 0 OFFCURVE",
"20 279 OFFCURVE",
"20 421 CURVE SMOOTH",
"20 524 LINE SMOOTH",
"20 597 OFFCURVE",
"17 700 OFFCURVE",
"125 700 CURVE SMOOTH",
"174 700 OFFCURVE",
"208 686 OFFCURVE",
"231 664 CURVE"
);
},
{
closed = 0;
nodes = (
"336 420 LINE",
"20 421 LINE"
);
},
{
closed = 0;
nodes = (
"231 0 LINE",
"231 0 OFFCURVE",
"231 279 OFFCURVE",
"231 421 CURVE SMOOTH",
"231 524 LINE SMOOTH",
"231 597 OFFCURVE",
"228 700 OFFCURVE",
"336 700 CURVE SMOOTH",
"385 700 OFFCURVE",
"419 686 OFFCURVE",
"442 664 CURVE",
"442 0 LINE"
);
}
);
width = 462;
},
{
layerId = "1AB63056-1127-463F-B001-FB2AC81901C9";
paths = (
{
closed = 0;
nodes = (
"20 0 LINE",
"20 0 OFFCURVE",
"20 279 OFFCURVE",
"20 421 CURVE SMOOTH",
"20 524 LINE SMOOTH",
"20 597 OFFCURVE",
"17 700 OFFCURVE",
"125 700 CURVE SMOOTH",
"174 700 OFFCURVE",
"208 686 OFFCURVE",
"231 664 CURVE"
);
},
{
closed = 0;
nodes = (
"336 420 LINE",
"20 421 LINE"
);
},
{
closed = 0;
nodes = (
"231 0 LINE",
"231 0 OFFCURVE",
"231 279 OFFCURVE",
"231 421 CURVE SMOOTH",
"231 524 LINE SMOOTH",
"231 597 OFFCURVE",
"228 700 OFFCURVE",
"336 700 CURVE SMOOTH",
"385 700 OFFCURVE",
"419 686 OFFCURVE",
"442 664 CURVE",
"442 0 LINE"
);
}
);
width = 462;
}
);
},
{
glyphname = f_t;
lastChange = "2018-09-15 15:05:31 +0000";
layers = (
{
layerId = "6F4F10D2-8254-4335-A627-9F8D8891324D";
paths = (
{
closed = 0;
nodes = (
"406 422 LINE",
"20 421 LINE"
);
},
{
closed = 0;
nodes = (
"20 0 LINE",
"20 0 OFFCURVE",
"20 279 OFFCURVE",
"20 421 CURVE",
"20 524 LINE",
"20 597 OFFCURVE",
"17 700 OFFCURVE",
"125 700 CURVE",
"174 700 OFFCURVE",
"208 686 OFFCURVE",
"231 664 CURVE SMOOTH",
"231 664 OFFCURVE",
"231 421 OFFCURVE",
"231 279 CURVE",
"231 176 LINE",
"231 103 OFFCURVE",
"227 0 OFFCURVE",
"336 0 CURVE",
"385 0 OFFCURVE",
"419 14 OFFCURVE",
"442 36 CURVE SMOOTH"
);
}
);
width = 462;
},
{
layerId = "25139FCF-725A-49A6-A058-8DCF5AC16622";
paths = (
{
closed = 0;
nodes = (
"406 422 LINE",
"20 421 LINE"
);
},
{
closed = 0;
nodes = (
"20 0 LINE",
"20 0 OFFCURVE",
"20 279 OFFCURVE",
"20 421 CURVE",
"20 524 LINE",
"20 597 OFFCURVE",
"17 700 OFFCURVE",
"125 700 CURVE",
"174 700 OFFCURVE",
"208 686 OFFCURVE",
"231 664 CURVE SMOOTH",
"231 664 OFFCURVE",
"231 421 OFFCURVE",
"231 279 CURVE",
"231 176 LINE",
"231 103 OFFCURVE",
"227 0 OFFCURVE",
"336 0 CURVE",
"385 0 OFFCURVE",
"419 14 OFFCURVE",
"442 36 CURVE SMOOTH"
);
}
);
width = 462;
},
{
layerId = "1AB63056-1127-463F-B001-FB2AC81901C9";
paths = (
{
closed = 0;
nodes = (
"406 422 LINE",
"20 421 LINE"
);
},
{
closed = 0;
nodes = (
"20 0 LINE",
"20 0 OFFCURVE",
"20 279 OFFCURVE",
"20 421 CURVE",
"20 524 LINE",
"20 597 OFFCURVE",
"17 700 OFFCURVE",
"125 700 CURVE",
"174 700 OFFCURVE",
"208 686 OFFCURVE",
"231 664 CURVE SMOOTH",
"231 664 OFFCURVE",
"231 421 OFFCURVE",
"231 279 CURVE",
"231 176 LINE",
"231 103 OFFCURVE",
"227 0 OFFCURVE",
"336 0 CURVE",
"385 0 OFFCURVE",
"419 14 OFFCURVE",
"442 36 CURVE SMOOTH"
);
}
);
width = 462;
}
);
},
{
glyphname = zero;
lastChange = "2018-09-15 15:05:31 +0000";
layers = (
{
layerId = "6F4F10D2-8254-4335-A627-9F8D8891324D";
paths = (
{
closed = 1;
nodes = (
"514 231 OFFCURVE",
"477 0 OFFCURVE",
"267 0 CURVE SMOOTH",
"39 0 OFFCURVE",
"20 231 OFFCURVE",
"20 350 CURVE SMOOTH",
"20 500 OFFCURVE",
"39 700 OFFCURVE",
"267 700 CURVE SMOOTH",
"477 700 OFFCURVE",
"514 496 OFFCURVE",
"514 350 CURVE SMOOTH"
);
}
);
width = 534;
},
{
layerId = "25139FCF-725A-49A6-A058-8DCF5AC16622";
paths = (
{
closed = 1;
nodes = (
"514 231 OFFCURVE",
"477 0 OFFCURVE",
"267 0 CURVE SMOOTH",
"39 0 OFFCURVE",
"20 231 OFFCURVE",
"20 350 CURVE SMOOTH",
"20 500 OFFCURVE",
"39 700 OFFCURVE",
"267 700 CURVE SMOOTH",
"477 700 OFFCURVE",
"514 496 OFFCURVE",
"514 350 CURVE SMOOTH"
);
}
);
width = 534;
},
{
layerId = "1AB63056-1127-463F-B001-FB2AC81901C9";
paths = (
{
closed = 1;
nodes = (
"514 231 OFFCURVE",
"477 0 OFFCURVE",
"267 0 CURVE SMOOTH",
"39 0 OFFCURVE",
"20 231 OFFCURVE",
"20 350 CURVE SMOOTH",
"20 500 OFFCURVE",
"39 700 OFFCURVE",
"267 700 CURVE SMOOTH",
"477 700 OFFCURVE",
"514 496 OFFCURVE",
"514 350 CURVE SMOOTH"
);
}
);
width = 534;
}
);
unicode = 0030;
},
{
glyphname = one;
lastChange = "2018-09-15 15:05:31 +0000";
layers = (
{
layerId = "6F4F10D2-8254-4335-A627-9F8D8891324D";
paths = (
{
closed = 0;
nodes = (
"161 0 LINE",
"161 700 LINE",
"20 599 LINE"
);
}
);
width = 181;
},
{
layerId = "25139FCF-725A-49A6-A058-8DCF5AC16622";
paths = (
{
closed = 0;
nodes = (
"161 0 LINE",
"161 700 LINE",
"20 599 LINE"
);
}
);
width = 181;
},
{
layerId = "1AB63056-1127-463F-B001-FB2AC81901C9";
paths = (
{
closed = 0;
nodes = (
"161 0 LINE",
"161 700 LINE",
"20 599 LINE"
);
}
);
width = 181;
}
);
unicode = 0031;
},
{
glyphname = two;
lastChange = "2018-09-15 15:05:31 +0000";
layers = (
{
layerId = "6F4F10D2-8254-4335-A627-9F8D8891324D";
paths = (
{
closed = 0;
nodes = (
"374 0 LINE",
"26 0 LINE SMOOTH",
"26 0 OFFCURVE",
"143 165 OFFCURVE",
"224 268 CURVE SMOOTH",
"289 350 OFFCURVE",
"350 416 OFFCURVE",
"350 524 CURVE SMOOTH",
"350 602 OFFCURVE",
"301 700 OFFCURVE",
"196 700 CURVE SMOOTH",
"57 700 OFFCURVE",
"35 634 OFFCURVE",
"20 588 CURVE"
);
}
);
width = 394;
},
{
layerId = "25139FCF-725A-49A6-A058-8DCF5AC16622";
paths = (
{
closed = 0;
nodes = (
"374 0 LINE",
"26 0 LINE SMOOTH",
"26 0 OFFCURVE",
"143 165 OFFCURVE",
"224 268 CURVE SMOOTH",
"289 350 OFFCURVE",
"350 416 OFFCURVE",
"350 524 CURVE SMOOTH",
"350 602 OFFCURVE",
"301 700 OFFCURVE",
"196 700 CURVE SMOOTH",
"57 700 OFFCURVE",
"35 634 OFFCURVE",
"20 588 CURVE"
);
}
);
width = 394;
},
{
layerId = "1AB63056-1127-463F-B001-FB2AC81901C9";
paths = (
{
closed = 0;
nodes = (
"374 0 LINE",
"26 0 LINE SMOOTH",
"26 0 OFFCURVE",
"143 165 OFFCURVE",
"224 268 CURVE SMOOTH",
"289 350 OFFCURVE",
"350 416 OFFCURVE",
"350 524 CURVE SMOOTH",
"350 602 OFFCURVE",
"301 700 OFFCURVE",
"196 700 CURVE SMOOTH",
"57 700 OFFCURVE",
"35 634 OFFCURVE",
"20 588 CURVE"
);
}
);
width = 394;
}
);
unicode = 0032;
},
{
glyphname = three;
lastChange = "2018-09-15 15:05:31 +0000";
layers = (
{
layerId = "6F4F10D2-8254-4335-A627-9F8D8891324D";
paths = (
{
closed = 0;
nodes = (
"20 105 LINE",
"20 105 OFFCURVE",
"31 0 OFFCURVE",
"229 0 CURVE SMOOTH",
"332 0 OFFCURVE",
"437 68 OFFCURVE",
"437 169 CURVE SMOOTH",
"437 272 OFFCURVE",
"359 354 OFFCURVE",
"227 354 CURVE",
"359 354 OFFCURVE",
"437 428 OFFCURVE",
"437 531 CURVE SMOOTH",
"437 632 OFFCURVE",
"332 700 OFFCURVE",
"229 700 CURVE SMOOTH",
"31 700 OFFCURVE",
"20 595 OFFCURVE",
"20 595 CURVE"
);
}
);
width = 457;
},
{
layerId = "25139FCF-725A-49A6-A058-8DCF5AC16622";
paths = (
{
closed = 0;
nodes = (
"20 105 LINE",
"20 105 OFFCURVE",
"31 0 OFFCURVE",
"229 0 CURVE SMOOTH",
"332 0 OFFCURVE",
"437 68 OFFCURVE",
"437 169 CURVE SMOOTH",
"437 272 OFFCURVE",
"359 354 OFFCURVE",
"227 354 CURVE",
"359 354 OFFCURVE",
"437 428 OFFCURVE",
"437 531 CURVE SMOOTH",
"437 632 OFFCURVE",
"332 700 OFFCURVE",
"229 700 CURVE SMOOTH",
"31 700 OFFCURVE",
"20 595 OFFCURVE",
"20 595 CURVE"
);
}
);
width = 457;
},
{
layerId = "1AB63056-1127-463F-B001-FB2AC81901C9";
paths = (
{
closed = 0;
nodes = (
"20 105 LINE",
"20 105 OFFCURVE",
"31 0 OFFCURVE",
"229 0 CURVE SMOOTH",
"332 0 OFFCURVE",
"437 68 OFFCURVE",
"437 169 CURVE SMOOTH",
"437 272 OFFCURVE",
"359 354 OFFCURVE",
"227 354 CURVE",
"359 354 OFFCURVE",
"437 428 OFFCURVE",
"437 531 CURVE SMOOTH",
"437 632 OFFCURVE",
"332 700 OFFCURVE",
"229 700 CURVE SMOOTH",
"31 700 OFFCURVE",
"20 595 OFFCURVE",
"20 595 CURVE"
);
}
);
width = 457;
}
);
unicode = 0033;
},
{
glyphname = four;
lastChange = "2018-09-15 15:05:31 +0000";
layers = (
{
layerId = "6F4F10D2-8254-4335-A627-9F8D8891324D";
paths = (
{
closed = 0;
nodes = (
"352 0 LINE",
"352 700 LINE",
"20 186 LINE",
"514 186 LINE"
);
}
);
width = 534;
},
{
layerId = "25139FCF-725A-49A6-A058-8DCF5AC16622";
paths = (
{
closed = 0;
nodes = (
"352 0 LINE",
"352 700 LINE",
"20 186 LINE",
"514 186 LINE"
);
}
);
width = 534;
},
{
layerId = "1AB63056-1127-463F-B001-FB2AC81901C9";
paths = (
{
closed = 0;
nodes = (
"352 0 LINE",
"352 700 LINE",
"20 186 LINE",
"514 186 LINE"
);
}
);
width = 534;
}
);
unicode = 0034;
},
{
glyphname = five;
lastChange = "2018-09-15 15:05:31 +0000";
layers = (
{
layerId = "6F4F10D2-8254-4335-A627-9F8D8891324D";
paths = (
{
closed = 0;
nodes = (
"440 700 LINE",
"20 700 LINE",
"20 420 LINE",
"20 420 OFFCURVE",
"111 500 OFFCURVE",
"252 500 CURVE SMOOTH",
"378 500 OFFCURVE",
"440 365 OFFCURVE",
"440 245 CURVE SMOOTH",
"440 140 OFFCURVE",
"371 0 OFFCURVE",
"209 0 CURVE SMOOTH",
"53 0 OFFCURVE",
"20 105 OFFCURVE",
"20 105 CURVE"
);
}
);
width = 460;
},
{
layerId = "25139FCF-725A-49A6-A058-8DCF5AC16622";
paths = (
{
closed = 0;
nodes = (
"440 700 LINE",
"20 700 LINE",
"20 420 LINE",
"20 420 OFFCURVE",
"111 500 OFFCURVE",
"252 500 CURVE SMOOTH",
"378 500 OFFCURVE",
"440 365 OFFCURVE",
"440 245 CURVE SMOOTH",
"440 140 OFFCURVE",
"371 0 OFFCURVE",
"209 0 CURVE SMOOTH",
"53 0 OFFCURVE",
"20 105 OFFCURVE",
"20 105 CURVE"
);
}
);
width = 460;
},
{
layerId = "1AB63056-1127-463F-B001-FB2AC81901C9";
paths = (
{
closed = 0;
nodes = (
"440 700 LINE",
"20 700 LINE",
"20 420 LINE",
"20 420 OFFCURVE",
"111 500 OFFCURVE",
"252 500 CURVE SMOOTH",
"378 500 OFFCURVE",
"440 365 OFFCURVE",
"440 245 CURVE SMOOTH",
"440 140 OFFCURVE",
"371 0 OFFCURVE",
"209 0 CURVE SMOOTH",
"53 0 OFFCURVE",
"20 105 OFFCURVE",
"20 105 CURVE"
);
}
);
width = 460;
}
);
unicode = 0035;
},
{
glyphname = six;
lastChange = "2018-09-15 15:05:31 +0000";
layers = (
{
layerId = "6F4F10D2-8254-4335-A627-9F8D8891324D";
paths = (
{
closed = 0;
nodes = (
"20 350 LINE",
"20 350 OFFCURVE",
"125 455 OFFCURVE",
"265 455 CURVE SMOOTH",
"405 455 OFFCURVE",
"475 385 OFFCURVE",
"475 245 CURVE SMOOTH",
"475 105 OFFCURVE",
"405 0 OFFCURVE",
"265 0 CURVE SMOOTH",
"55 0 OFFCURVE",
"20 175 OFFCURVE",
"20 350 CURVE SMOOTH",
"20 525 OFFCURVE",
"55 700 OFFCURVE",
"265 700 CURVE SMOOTH",
"342 700 OFFCURVE",
"401 682 OFFCURVE",
"445 637 CURVE"
);
}
);
width = 495;
},
{
layerId = "25139FCF-725A-49A6-A058-8DCF5AC16622";
paths = (
{
closed = 0;
nodes = (
"20 350 LINE",
"20 350 OFFCURVE",
"125 455 OFFCURVE",
"265 455 CURVE SMOOTH",
"405 455 OFFCURVE",
"475 385 OFFCURVE",
"475 245 CURVE SMOOTH",
"475 105 OFFCURVE",
"405 0 OFFCURVE",
"265 0 CURVE SMOOTH",
"55 0 OFFCURVE",
"20 175 OFFCURVE",
"20 350 CURVE SMOOTH",
"20 525 OFFCURVE",
"55 700 OFFCURVE",
"265 700 CURVE SMOOTH",
"342 700 OFFCURVE",
"401 682 OFFCURVE",
"445 637 CURVE"
);
}
);
width = 495;
},
{
layerId = "1AB63056-1127-463F-B001-FB2AC81901C9";
paths = (
{
closed = 0;
nodes = (
"20 350 LINE",
"20 350 OFFCURVE",
"125 455 OFFCURVE",
"265 455 CURVE SMOOTH",
"405 455 OFFCURVE",
"475 385 OFFCURVE",
"475 245 CURVE SMOOTH",
"475 105 OFFCURVE",
"405 0 OFFCURVE",
"265 0 CURVE SMOOTH",
"55 0 OFFCURVE",
"20 175 OFFCURVE",
"20 350 CURVE SMOOTH",
"20 525 OFFCURVE",
"55 700 OFFCURVE",
"265 700 CURVE SMOOTH",
"342 700 OFFCURVE",
"401 682 OFFCURVE",
"445 637 CURVE"
);
}
);
width = 495;
}
);
unicode = 0036;
},
{
glyphname = seven;
lastChange = "2018-09-15 15:05:31 +0000";
layers = (
{
layerId = "6F4F10D2-8254-4335-A627-9F8D8891324D";
paths = (
{
closed = 0;
nodes = (
"110 0 LINE",
"245 385 OFFCURVE",
"490 700 OFFCURVE",
"490 700 CURVE SMOOTH",
"0 700 LINE",
"0 595 LINE"
);
}
);
width = 600;
},
{
layerId = "25139FCF-725A-49A6-A058-8DCF5AC16622";
paths = (
{
closed = 0;
nodes = (
"110 0 LINE",
"245 385 OFFCURVE",
"490 700 OFFCURVE",
"490 700 CURVE SMOOTH",
"0 700 LINE",
"0 595 LINE"
);
}
);
width = 600;
},
{
layerId = "1AB63056-1127-463F-B001-FB2AC81901C9";
paths = (
{
closed = 0;
nodes = (
"110 0 LINE",
"245 385 OFFCURVE",
"490 700 OFFCURVE",
"490 700 CURVE SMOOTH",
"0 700 LINE",
"0 595 LINE"
);
}
);
width = 600;
}
);
unicode = 0037;
},
{
glyphname = eight;
lastChange = "2018-09-15 15:05:31 +0000";
layers = (
{
layerId = "6F4F10D2-8254-4335-A627-9F8D8891324D";
paths = (
{
closed = 1;
nodes = (
"493 79 OFFCURVE",
"387 0 OFFCURVE",
"256 0 CURVE SMOOTH",
"126 0 OFFCURVE",
"20 79 OFFCURVE",
"20 177 CURVE SMOOTH",
"20 274 OFFCURVE",
"126 354 OFFCURVE",
"256 354 CURVE SMOOTH",
"387 354 OFFCURVE",
"493 274 OFFCURVE",
"493 177 CURVE SMOOTH"
);
},
{
closed = 1;
nodes = (
"450 435 OFFCURVE",
"363 359 OFFCURVE",
"256 359 CURVE SMOOTH",
"149 359 OFFCURVE",
"63 435 OFFCURVE",
"63 530 CURVE SMOOTH",
"63 624 OFFCURVE",
"149 700 OFFCURVE",
"256 700 CURVE SMOOTH",
"363 700 OFFCURVE",
"450 624 OFFCURVE",
"450 530 CURVE SMOOTH"
);
}
);
width = 513;
},
{
layerId = "25139FCF-725A-49A6-A058-8DCF5AC16622";
paths = (
{
closed = 1;
nodes = (
"493 79 OFFCURVE",
"387 0 OFFCURVE",
"256 0 CURVE SMOOTH",
"126 0 OFFCURVE",
"20 79 OFFCURVE",
"20 177 CURVE SMOOTH",
"20 274 OFFCURVE",
"126 354 OFFCURVE",
"256 354 CURVE SMOOTH",
"387 354 OFFCURVE",
"493 274 OFFCURVE",
"493 177 CURVE SMOOTH"
);
},
{
closed = 1;
nodes = (
"450 435 OFFCURVE",
"363 359 OFFCURVE",
"256 359 CURVE SMOOTH",
"149 359 OFFCURVE",
"63 435 OFFCURVE",
"63 530 CURVE SMOOTH",
"63 624 OFFCURVE",
"149 700 OFFCURVE",
"256 700 CURVE SMOOTH",
"363 700 OFFCURVE",
"450 624 OFFCURVE",
"450 530 CURVE SMOOTH"
);
}
);
width = 513;
},
{
layerId = "1AB63056-1127-463F-B001-FB2AC81901C9";
paths = (
{
closed = 1;
nodes = (
"493 79 OFFCURVE",
"387 0 OFFCURVE",
"256 0 CURVE SMOOTH",
"126 0 OFFCURVE",
"20 79 OFFCURVE",
"20 177 CURVE SMOOTH",
"20 274 OFFCURVE",
"126 354 OFFCURVE",
"256 354 CURVE SMOOTH",
"387 354 OFFCURVE",
"493 274 OFFCURVE",
"493 177 CURVE SMOOTH"
);
},
{
closed = 1;
nodes = (
"450 435 OFFCURVE",
"363 359 OFFCURVE",
"256 359 CURVE SMOOTH",
"149 359 OFFCURVE",
"63 435 OFFCURVE",
"63 530 CURVE SMOOTH",
"63 624 OFFCURVE",
"149 700 OFFCURVE",
"256 700 CURVE SMOOTH",
"363 700 OFFCURVE",
"450 624 OFFCURVE",
"450 530 CURVE SMOOTH"
);
}
);
width = 513;
}
);
unicode = 0038;
},
{
glyphname = nine;
lastChange = "2018-09-15 15:05:31 +0000";
layers = (
{
layerId = "6F4F10D2-8254-4335-A627-9F8D8891324D";
paths = (
{
closed = 0;
nodes = (
"475 350 LINE",
"475 350 OFFCURVE",
"370 245 OFFCURVE",
"230 245 CURVE SMOOTH",
"90 245 OFFCURVE",
"20 315 OFFCURVE",
"20 455 CURVE SMOOTH",
"20 595 OFFCURVE",
"90 700 OFFCURVE",
"230 700 CURVE SMOOTH",
"440 700 OFFCURVE",
"475 525 OFFCURVE",
"475 350 CURVE SMOOTH",
"475 175 OFFCURVE",
"440 0 OFFCURVE",
"230 0 CURVE SMOOTH",
"153 0 OFFCURVE",
"94 18 OFFCURVE",
"50 63 CURVE"
);
}
);
width = 495;
},
{
layerId = "25139FCF-725A-49A6-A058-8DCF5AC16622";
paths = (
{
closed = 0;
nodes = (
"475 350 LINE",
"475 350 OFFCURVE",
"370 245 OFFCURVE",
"230 245 CURVE SMOOTH",
"90 245 OFFCURVE",
"20 315 OFFCURVE",
"20 455 CURVE SMOOTH",
"20 595 OFFCURVE",
"90 700 OFFCURVE",
"230 700 CURVE SMOOTH",
"440 700 OFFCURVE",
"475 525 OFFCURVE",
"475 350 CURVE SMOOTH",
"475 175 OFFCURVE",
"440 0 OFFCURVE",
"230 0 CURVE SMOOTH",
"153 0 OFFCURVE",
"94 18 OFFCURVE",
"50 63 CURVE"
);
}
);
width = 495;
},
{
layerId = "1AB63056-1127-463F-B001-FB2AC81901C9";
paths = (
{
closed = 0;
nodes = (
"475 350 LINE",
"475 350 OFFCURVE",
"370 245 OFFCURVE",
"230 245 CURVE SMOOTH",
"90 245 OFFCURVE",
"20 315 OFFCURVE",
"20 455 CURVE SMOOTH",
"20 595 OFFCURVE",
"90 700 OFFCURVE",
"230 700 CURVE SMOOTH",
"440 700 OFFCURVE",
"475 525 OFFCURVE",
"475 350 CURVE SMOOTH",
"475 175 OFFCURVE",
"440 0 OFFCURVE",
"230 0 CURVE SMOOTH",
"153 0 OFFCURVE",
"94 18 OFFCURVE",
"50 63 CURVE"
);
}
);
width = 495;
}
);
unicode = 0039;
},
{
glyphname = zero.osf;
lastChange = "2018-09-15 15:05:31 +0000";
layers = (
{
layerId = "6F4F10D2-8254-4335-A627-9F8D8891324D";
paths = (
{
closed = 1;
nodes = (
"365 164 OFFCURVE",
"350 0 OFFCURVE",
"198 0 CURVE SMOOTH",
"33 0 OFFCURVE",
"20 167 OFFCURVE",
"20 253 CURVE SMOOTH",
"20 361 OFFCURVE",
"33 500 OFFCURVE",
"198 500 CURVE SMOOTH",
"350 500 OFFCURVE",
"365 356 OFFCURVE",
"365 250 CURVE SMOOTH"
);
}
);
width = 385;
},
{
layerId = "25139FCF-725A-49A6-A058-8DCF5AC16622";
paths = (
{
closed = 1;
nodes = (
"365 164 OFFCURVE",
"350 0 OFFCURVE",
"198 0 CURVE SMOOTH",
"33 0 OFFCURVE",
"20 167 OFFCURVE",
"20 253 CURVE SMOOTH",
"20 361 OFFCURVE",
"33 500 OFFCURVE",
"198 500 CURVE SMOOTH",
"350 500 OFFCURVE",
"365 356 OFFCURVE",
"365 250 CURVE SMOOTH"
);
}
);
width = 385;
},
{
layerId = "1AB63056-1127-463F-B001-FB2AC81901C9";
paths = (
{
closed = 1;
nodes = (
"365 164 OFFCURVE",
"350 0 OFFCURVE",
"198 0 CURVE SMOOTH",
"33 0 OFFCURVE",
"20 167 OFFCURVE",
"20 253 CURVE SMOOTH",
"20 361 OFFCURVE",
"33 500 OFFCURVE",
"198 500 CURVE SMOOTH",
"350 500 OFFCURVE",
"365 356 OFFCURVE",
"365 250 CURVE SMOOTH"
);
}
);
width = 385;
}
);
},
{
glyphname = one.osf;
lastChange = "2018-09-15 15:05:31 +0000";
layers = (
{
layerId = "6F4F10D2-8254-4335-A627-9F8D8891324D";
paths = (
{
closed = 0;
nodes = (
"128 0 LINE",
"128 500 LINE",
"20 430 LINE"
);
}
);
width = 148;
},
{
layerId = "25139FCF-725A-49A6-A058-8DCF5AC16622";
paths = (
{
closed = 0;
nodes = (
"128 0 LINE",
"128 500 LINE",
"20 430 LINE"
);
}
);
width = 148;
},
{
layerId = "1AB63056-1127-463F-B001-FB2AC81901C9";
paths = (
{
closed = 0;
nodes = (
"128 0 LINE",
"128 500 LINE",
"20 430 LINE"
);
}
);
width = 148;
}
);
},
{
glyphname = two.osf;
lastChange = "2018-09-15 15:05:31 +0000";
layers = (
{
layerId = "6F4F10D2-8254-4335-A627-9F8D8891324D";
paths = (
{
closed = 0;
nodes = (
"272 0 LINE",
"24 0 LINE SMOOTH",
"24 0 OFFCURVE",
"107 117 OFFCURVE",
"165 190 CURVE SMOOTH",
"212 249 OFFCURVE",
"257 294 OFFCURVE",
"257 371 CURVE SMOOTH",
"257 426 OFFCURVE",
"233 492 OFFCURVE",
"153 492 CURVE SMOOTH",
"28 492 OFFCURVE",
"20 418 OFFCURVE",
"20 418 CURVE"
);
}
);
width = 292;
},
{
layerId = "25139FCF-725A-49A6-A058-8DCF5AC16622";
paths = (
{
closed = 0;
nodes = (
"272 0 LINE",
"24 0 LINE SMOOTH",
"24 0 OFFCURVE",
"107 117 OFFCURVE",
"165 190 CURVE SMOOTH",
"212 249 OFFCURVE",
"257 294 OFFCURVE",
"257 371 CURVE SMOOTH",
"257 426 OFFCURVE",
"233 492 OFFCURVE",
"153 492 CURVE SMOOTH",
"28 492 OFFCURVE",
"20 418 OFFCURVE",
"20 418 CURVE"
);
}
);
width = 292;
},
{
layerId = "1AB63056-1127-463F-B001-FB2AC81901C9";
paths = (
{
closed = 0;
nodes = (
"272 0 LINE",
"24 0 LINE SMOOTH",
"24 0 OFFCURVE",
"107 117 OFFCURVE",
"165 190 CURVE SMOOTH",
"212 249 OFFCURVE",
"257 294 OFFCURVE",
"257 371 CURVE SMOOTH",
"257 426 OFFCURVE",
"233 492 OFFCURVE",
"153 492 CURVE SMOOTH",
"28 492 OFFCURVE",
"20 418 OFFCURVE",
"20 418 CURVE"
);
}
);
width = 292;
}
);
},
{
glyphname = three.osf;
lastChange = "2018-09-15 15:05:31 +0000";
layers = (
{
layerId = "6F4F10D2-8254-4335-A627-9F8D8891324D";
paths = (
{
closed = 0;
nodes = (
"20 75 LINE",
"20 75 OFFCURVE",
"28 0 OFFCURVE",
"169 0 CURVE SMOOTH",
"243 0 OFFCURVE",
"318 49 OFFCURVE",
"318 121 CURVE SMOOTH",
"318 194 OFFCURVE",
"262 253 OFFCURVE",
"168 253 CURVE",
"262 253 OFFCURVE",
"318 306 OFFCURVE",
"318 379 CURVE SMOOTH",
"318 451 OFFCURVE",
"243 500 OFFCURVE",
"169 500 CURVE SMOOTH",
"28 500 OFFCURVE",
"20 425 OFFCURVE",
"20 425 CURVE"
);
}
);
width = 338;
},
{
layerId = "25139FCF-725A-49A6-A058-8DCF5AC16622";
paths = (
{
closed = 0;
nodes = (
"20 75 LINE",
"20 75 OFFCURVE",
"28 0 OFFCURVE",
"169 0 CURVE SMOOTH",
"243 0 OFFCURVE",
"318 49 OFFCURVE",
"318 121 CURVE SMOOTH",
"318 194 OFFCURVE",
"262 253 OFFCURVE",
"168 253 CURVE",
"262 253 OFFCURVE",
"318 306 OFFCURVE",
"318 379 CURVE SMOOTH",
"318 451 OFFCURVE",
"243 500 OFFCURVE",
"169 500 CURVE SMOOTH",
"28 500 OFFCURVE",
"20 425 OFFCURVE",
"20 425 CURVE"
);
}
);
width = 338;
},
{
layerId = "1AB63056-1127-463F-B001-FB2AC81901C9";
paths = (
{
closed = 0;
nodes = (
"20 75 LINE",
"20 75 OFFCURVE",
"28 0 OFFCURVE",
"169 0 CURVE SMOOTH",
"243 0 OFFCURVE",
"318 49 OFFCURVE",
"318 121 CURVE SMOOTH",
"318 194 OFFCURVE",
"262 253 OFFCURVE",
"168 253 CURVE",
"262 253 OFFCURVE",
"318 306 OFFCURVE",
"318 379 CURVE SMOOTH",
"318 451 OFFCURVE",
"243 500 OFFCURVE",
"169 500 CURVE SMOOTH",
"28 500 OFFCURVE",
"20 425 OFFCURVE",
"20 425 CURVE"
);
}
);
width = 338;
}
);
},
{
glyphname = four.osf;
lastChange = "2018-09-15 15:05:31 +0000";
layers = (
{
layerId = "6F4F10D2-8254-4335-A627-9F8D8891324D";
paths = (
{
closed = 0;
nodes = (
"257 0 LINE",
"257 500 LINE",
"20 133 LINE",
"373 133 LINE"
);
}
);
width = 393;
},
{
layerId = "25139FCF-725A-49A6-A058-8DCF5AC16622";
paths = (
{
closed = 0;
nodes = (
"257 0 LINE",
"257 500 LINE",
"20 133 LINE",
"373 133 LINE"
);
}
);
width = 393;
},
{
layerId = "1AB63056-1127-463F-B001-FB2AC81901C9";
paths = (
{
closed = 0;
nodes = (
"257 0 LINE",
"257 500 LINE",
"20 133 LINE",
"373 133 LINE"
);
}
);
width = 393;
}
);
},
{
glyphname = five.osf;
lastChange = "2018-09-15 15:05:31 +0000";
layers = (
{
layerId = "6F4F10D2-8254-4335-A627-9F8D8891324D";
paths = (
{
closed = 0;
nodes = (
"320 500 LINE",
"20 500 LINE",
"20 300 LINE",
"20 300 OFFCURVE",
"85 357 OFFCURVE",
"186 357 CURVE SMOOTH",
"276 357 OFFCURVE",
"320 261 OFFCURVE",
"320 175 CURVE SMOOTH",
"320 100 OFFCURVE",
"271 0 OFFCURVE",
"155 0 CURVE SMOOTH",
"44 0 OFFCURVE",
"20 75 OFFCURVE",
"20 75 CURVE"
);
}
);
width = 340;
},
{
layerId = "25139FCF-725A-49A6-A058-8DCF5AC16622";
paths = (
{
closed = 0;
nodes = (
"320 500 LINE",
"20 500 LINE",
"20 300 LINE",
"20 300 OFFCURVE",
"85 357 OFFCURVE",
"186 357 CURVE SMOOTH",
"276 357 OFFCURVE",
"320 261 OFFCURVE",
"320 175 CURVE SMOOTH",
"320 100 OFFCURVE",
"271 0 OFFCURVE",
"155 0 CURVE SMOOTH",
"44 0 OFFCURVE",
"20 75 OFFCURVE",
"20 75 CURVE"
);
}
);
width = 340;
},
{
layerId = "1AB63056-1127-463F-B001-FB2AC81901C9";
paths = (
{
closed = 0;
nodes = (
"320 500 LINE",
"20 500 LINE",
"20 300 LINE",
"20 300 OFFCURVE",
"85 357 OFFCURVE",
"186 357 CURVE SMOOTH",
"276 357 OFFCURVE",
"320 261 OFFCURVE",
"320 175 CURVE SMOOTH",
"320 100 OFFCURVE",
"271 0 OFFCURVE",
"155 0 CURVE SMOOTH",
"44 0 OFFCURVE",
"20 75 OFFCURVE",
"20 75 CURVE"
);
}
);
width = 340;
}
);
},
{
glyphname = six.osf;
lastChange = "2018-09-15 15:05:31 +0000";
layers = (
{
layerId = "6F4F10D2-8254-4335-A627-9F8D8891324D";
paths = (
{
closed = 0;
nodes = (
"20 250 LINE",
"20 250 OFFCURVE",
"95 325 OFFCURVE",
"195 325 CURVE SMOOTH",
"295 325 OFFCURVE",
"345 275 OFFCURVE",
"345 175 CURVE SMOOTH",
"345 75 OFFCURVE",
"295 0 OFFCURVE",
"195 0 CURVE SMOOTH",
"45 0 OFFCURVE",
"20 125 OFFCURVE",
"20 250 CURVE SMOOTH",
"20 375 OFFCURVE",
"45 500 OFFCURVE",
"195 500 CURVE SMOOTH",
"250 500 OFFCURVE",
"292 487 OFFCURVE",
"324 455 CURVE"
);
}
);
width = 365;
},
{
layerId = "25139FCF-725A-49A6-A058-8DCF5AC16622";
paths = (
{
closed = 0;
nodes = (
"20 250 LINE",
"20 250 OFFCURVE",
"95 325 OFFCURVE",
"195 325 CURVE SMOOTH",
"295 325 OFFCURVE",
"345 275 OFFCURVE",
"345 175 CURVE SMOOTH",
"345 75 OFFCURVE",
"295 0 OFFCURVE",
"195 0 CURVE SMOOTH",
"45 0 OFFCURVE",
"20 125 OFFCURVE",
"20 250 CURVE SMOOTH",
"20 375 OFFCURVE",
"45 500 OFFCURVE",
"195 500 CURVE SMOOTH",
"250 500 OFFCURVE",
"292 487 OFFCURVE",
"324 455 CURVE"
);
}
);
width = 365;
},
{
layerId = "1AB63056-1127-463F-B001-FB2AC81901C9";
paths = (
{
closed = 0;
nodes = (
"20 250 LINE",
"20 250 OFFCURVE",
"95 325 OFFCURVE",
"195 325 CURVE SMOOTH",
"295 325 OFFCURVE",
"345 275 OFFCURVE",
"345 175 CURVE SMOOTH",
"345 75 OFFCURVE",
"295 0 OFFCURVE",
"195 0 CURVE SMOOTH",
"45 0 OFFCURVE",
"20 125 OFFCURVE",
"20 250 CURVE SMOOTH",
"20 375 OFFCURVE",
"45 500 OFFCURVE",
"195 500 CURVE SMOOTH",
"250 500 OFFCURVE",
"292 487 OFFCURVE",
"324 455 CURVE"
);
}
);
width = 365;
}
);
},
{
glyphname = seven.osf;
lastChange = "2018-09-15 15:05:31 +0000";
layers = (
{
layerId = "6F4F10D2-8254-4335-A627-9F8D8891324D";
paths = (
{
closed = 0;
nodes = (
"99 0 LINE",
"195 275 OFFCURVE",
"370 500 OFFCURVE",
"370 500 CURVE SMOOTH",
"20 500 LINE",
"20 425 LINE"
);
}
);
width = 390;
},
{
layerId = "25139FCF-725A-49A6-A058-8DCF5AC16622";
paths = (
{
closed = 0;
nodes = (
"99 0 LINE",
"195 275 OFFCURVE",
"370 500 OFFCURVE",
"370 500 CURVE SMOOTH",
"20 500 LINE",
"20 425 LINE"
);
}
);
width = 390;
},
{
layerId = "1AB63056-1127-463F-B001-FB2AC81901C9";
paths = (
{
closed = 0;
nodes = (
"99 0 LINE",
"195 275 OFFCURVE",
"370 500 OFFCURVE",
"370 500 CURVE SMOOTH",
"20 500 LINE",
"20 425 LINE"
);
}
);
width = 390;
}
);
},
{
glyphname = eight.osf;
lastChange = "2018-09-15 15:05:31 +0000";
layers = (
{
layerId = "6F4F10D2-8254-4335-A627-9F8D8891324D";
paths = (
{
closed = 1;
nodes = (
"358 56 OFFCURVE",
"282 0 OFFCURVE",
"189 0 CURVE SMOOTH",
"96 0 OFFCURVE",
"20 56 OFFCURVE",
"20 126 CURVE SMOOTH",
"20 196 OFFCURVE",
"96 253 OFFCURVE",
"189 253 CURVE SMOOTH",
"282 253 OFFCURVE",
"358 196 OFFCURVE",
"358 126 CURVE SMOOTH"
);
},
{
closed = 1;
nodes = (
"327 311 OFFCURVE",
"265 256 OFFCURVE",
"189 256 CURVE SMOOTH",
"112 256 OFFCURVE",
"51 311 OFFCURVE",
"51 379 CURVE SMOOTH",
"51 446 OFFCURVE",
"112 500 OFFCURVE",
"189 500 CURVE SMOOTH",
"265 500 OFFCURVE",
"327 446 OFFCURVE",
"327 379 CURVE SMOOTH"
);
}
);
width = 378;
},
{
layerId = "25139FCF-725A-49A6-A058-8DCF5AC16622";
paths = (
{
closed = 1;
nodes = (
"358 56 OFFCURVE",
"282 0 OFFCURVE",
"189 0 CURVE SMOOTH",
"96 0 OFFCURVE",
"20 56 OFFCURVE",
"20 126 CURVE SMOOTH",
"20 196 OFFCURVE",
"96 253 OFFCURVE",
"189 253 CURVE SMOOTH",
"282 253 OFFCURVE",
"358 196 OFFCURVE",
"358 126 CURVE SMOOTH"
);
},
{
closed = 1;
nodes = (
"327 311 OFFCURVE",
"265 256 OFFCURVE",
"189 256 CURVE SMOOTH",
"112 256 OFFCURVE",
"51 311 OFFCURVE",
"51 379 CURVE SMOOTH",
"51 446 OFFCURVE",
"112 500 OFFCURVE",
"189 500 CURVE SMOOTH",
"265 500 OFFCURVE",
"327 446 OFFCURVE",
"327 379 CURVE SMOOTH"
);
}
);
width = 378;
},
{
layerId = "1AB63056-1127-463F-B001-FB2AC81901C9";
paths = (
{
closed = 1;
nodes = (
"358 56 OFFCURVE",
"282 0 OFFCURVE",
"189 0 CURVE SMOOTH",
"96 0 OFFCURVE",
"20 56 OFFCURVE",
"20 126 CURVE SMOOTH",
"20 196 OFFCURVE",
"96 253 OFFCURVE",
"189 253 CURVE SMOOTH",
"282 253 OFFCURVE",
"358 196 OFFCURVE",
"358 126 CURVE SMOOTH"
);
},
{
closed = 1;
nodes = (
"327 311 OFFCURVE",
"265 256 OFFCURVE",
"189 256 CURVE SMOOTH",
"112 256 OFFCURVE",
"51 311 OFFCURVE",
"51 379 CURVE SMOOTH",
"51 446 OFFCURVE",
"112 500 OFFCURVE",
"189 500 CURVE SMOOTH",
"265 500 OFFCURVE",
"327 446 OFFCURVE",
"327 379 CURVE SMOOTH"
);
}
);
width = 378;
}
);
},
{
glyphname = nine.osf;
lastChange = "2018-09-15 15:05:31 +0000";
layers = (
{
layerId = "6F4F10D2-8254-4335-A627-9F8D8891324D";
paths = (
{
closed = 0;
nodes = (
"345 250 LINE",
"345 250 OFFCURVE",
"270 175 OFFCURVE",
"170 175 CURVE SMOOTH",
"70 175 OFFCURVE",
"20 225 OFFCURVE",
"20 325 CURVE SMOOTH",
"20 425 OFFCURVE",
"70 500 OFFCURVE",
"170 500 CURVE SMOOTH",
"320 500 OFFCURVE",
"345 375 OFFCURVE",
"345 250 CURVE SMOOTH",
"345 125 OFFCURVE",
"320 0 OFFCURVE",
"170 0 CURVE SMOOTH",
"115 0 OFFCURVE",
"73 13 OFFCURVE",
"41 45 CURVE"
);
}
);
width = 365;
},
{
layerId = "25139FCF-725A-49A6-A058-8DCF5AC16622";
paths = (
{
closed = 0;
nodes = (
"345 250 LINE",
"345 250 OFFCURVE",
"270 175 OFFCURVE",
"170 175 CURVE SMOOTH",
"70 175 OFFCURVE",
"20 225 OFFCURVE",
"20 325 CURVE SMOOTH",
"20 425 OFFCURVE",
"70 500 OFFCURVE",
"170 500 CURVE SMOOTH",
"320 500 OFFCURVE",
"345 375 OFFCURVE",
"345 250 CURVE SMOOTH",
"345 125 OFFCURVE",
"320 0 OFFCURVE",
"170 0 CURVE SMOOTH",
"115 0 OFFCURVE",
"73 13 OFFCURVE",
"41 45 CURVE"
);
}
);
width = 365;
},
{
layerId = "1AB63056-1127-463F-B001-FB2AC81901C9";
paths = (
{
closed = 0;
nodes = (
"345 250 LINE",
"345 250 OFFCURVE",
"270 175 OFFCURVE",
"170 175 CURVE SMOOTH",
"70 175 OFFCURVE",
"20 225 OFFCURVE",
"20 325 CURVE SMOOTH",
"20 425 OFFCURVE",
"70 500 OFFCURVE",
"170 500 CURVE SMOOTH",
"320 500 OFFCURVE",
"345 375 OFFCURVE",
"345 250 CURVE SMOOTH",
"345 125 OFFCURVE",
"320 0 OFFCURVE",
"170 0 CURVE SMOOTH",
"115 0 OFFCURVE",
"73 13 OFFCURVE",
"41 45 CURVE"
);
}
);
width = 365;
}
);
},
{
glyphname = emdash;
lastChange = "2018-09-15 15:05:31 +0000";
layers = (
{
layerId = "6F4F10D2-8254-4335-A627-9F8D8891324D";
paths = (
{
closed = 0;
nodes = (
"20 250 LINE",
"720 250 LINE"
);
}
);
width = 740;
},
{
layerId = "25139FCF-725A-49A6-A058-8DCF5AC16622";
paths = (
{
closed = 0;
nodes = (
"20 250 LINE",
"720 250 LINE"
);
}
);
width = 740;
},
{
layerId = "1AB63056-1127-463F-B001-FB2AC81901C9";
paths = (
{
closed = 0;
nodes = (
"20 250 LINE",
"720 250 LINE"
);
}
);
width = 740;
}
);
unicode = 2014;
},
{
glyphname = endash;
lastChange = "2018-09-15 15:05:31 +0000";
layers = (
{
layerId = "6F4F10D2-8254-4335-A627-9F8D8891324D";
paths = (
{
closed = 0;
nodes = (
"20 250 LINE",
"520 250 LINE"
);
}
);
width = 540;
},
{
layerId = "25139FCF-725A-49A6-A058-8DCF5AC16622";
paths = (
{
closed = 0;
nodes = (
"20 250 LINE",
"520 250 LINE"
);
}
);
width = 540;
},
{
layerId = "1AB63056-1127-463F-B001-FB2AC81901C9";
paths = (
{
closed = 0;
nodes = (
"20 250 LINE",
"520 250 LINE"
);
}
);
width = 540;
}
);
unicode = 2013;
},
{
glyphname = hyphen;
lastChange = "2018-09-15 15:05:31 +0000";
layers = (
{
layerId = "6F4F10D2-8254-4335-A627-9F8D8891324D";
paths = (
{
closed = 0;
nodes = (
"20 250 LINE",
"299 250 LINE"
);
}
);
width = 319;
},
{
layerId = "25139FCF-725A-49A6-A058-8DCF5AC16622";
paths = (
{
closed = 0;
nodes = (
"20 250 LINE",
"299 250 LINE"
);
}
);
width = 319;
},
{
layerId = "1AB63056-1127-463F-B001-FB2AC81901C9";
paths = (
{
closed = 0;
nodes = (
"20 250 LINE",
"299 250 LINE"
);
}
);
width = 319;
}
);
unicode = 002D;
},
{
glyphname = dollar;
lastChange = "2018-09-15 15:05:31 +0000";
layers = (
{
layerId = "6F4F10D2-8254-4335-A627-9F8D8891324D";
paths = (
{
closed = 0;
nodes = (
"474 560 LINE",
"474 560 OFFCURVE",
"431 700 OFFCURVE",
"247 700 CURVE SMOOTH",
"58 700 OFFCURVE",
"20 632 OFFCURVE",
"20 525 CURVE SMOOTH",
"20 417 OFFCURVE",
"106 375 OFFCURVE",
"247 350 CURVE SMOOTH",
"389 325 OFFCURVE",
"476 287 OFFCURVE",
"476 174 CURVE SMOOTH",
"476 66 OFFCURVE",
"437 0 OFFCURVE",
"247 0 CURVE SMOOTH",
"64 0 OFFCURVE",
"21 140 OFFCURVE",
"21 140 CURVE"
);
},
{
closed = 0;
nodes = (
"247 800 LINE",
"247 -100 LINE"
);
}
);
width = 600;
},
{
layerId = "25139FCF-725A-49A6-A058-8DCF5AC16622";
paths = (
{
closed = 0;
nodes = (
"474 560 LINE",
"474 560 OFFCURVE",
"431 700 OFFCURVE",
"247 700 CURVE SMOOTH",
"58 700 OFFCURVE",
"20 632 OFFCURVE",
"20 525 CURVE SMOOTH",
"20 417 OFFCURVE",
"106 375 OFFCURVE",
"247 350 CURVE SMOOTH",
"389 325 OFFCURVE",
"476 287 OFFCURVE",
"476 174 CURVE SMOOTH",
"476 66 OFFCURVE",
"437 0 OFFCURVE",
"247 0 CURVE SMOOTH",
"64 0 OFFCURVE",
"21 140 OFFCURVE",
"21 140 CURVE"
);
},
{
closed = 0;
nodes = (
"247 800 LINE",
"247 -100 LINE"
);
}
);
width = 600;
},
{
layerId = "1AB63056-1127-463F-B001-FB2AC81901C9";
paths = (
{
closed = 0;
nodes = (
"474 560 LINE",
"474 560 OFFCURVE",
"431 700 OFFCURVE",
"247 700 CURVE SMOOTH",
"58 700 OFFCURVE",
"20 632 OFFCURVE",
"20 525 CURVE SMOOTH",
"20 417 OFFCURVE",
"106 375 OFFCURVE",
"247 350 CURVE SMOOTH",
"389 325 OFFCURVE",
"476 287 OFFCURVE",
"476 174 CURVE SMOOTH",
"476 66 OFFCURVE",
"437 0 OFFCURVE",
"247 0 CURVE SMOOTH",
"64 0 OFFCURVE",
"21 140 OFFCURVE",
"21 140 CURVE"
);
},
{
closed = 0;
nodes = (
"247 800 LINE",
"247 -100 LINE"
);
}
);
width = 600;
}
);
unicode = 0024;
},
{
glyphname = infinity;
lastChange = "2018-09-15 15:05:31 +0000";
layers = (
{
layerId = "6F4F10D2-8254-4335-A627-9F8D8891324D";
paths = (
{
closed = 1;
nodes = (
"957 63 OFFCURVE",
"1031 138 OFFCURVE",
"1031 250 CURVE SMOOTH",
"1031 362 OFFCURVE",
"957 438 OFFCURVE",
"807 438 CURVE SMOOTH",
"536 438 OFFCURVE",
"507 63 OFFCURVE",
"246 63 CURVE SMOOTH",
"97 63 OFFCURVE",
"20 138 OFFCURVE",
"20 250 CURVE SMOOTH",
"20 362 OFFCURVE",
"97 438 OFFCURVE",
"246 438 CURVE SMOOTH",
"507 438 OFFCURVE",
"544 63 OFFCURVE",
"807 63 CURVE SMOOTH"
);
}
);
width = 1051;
},
{
layerId = "25139FCF-725A-49A6-A058-8DCF5AC16622";
paths = (
{
closed = 1;
nodes = (
"957 63 OFFCURVE",
"1031 138 OFFCURVE",
"1031 250 CURVE SMOOTH",
"1031 362 OFFCURVE",
"957 438 OFFCURVE",
"807 438 CURVE SMOOTH",
"536 438 OFFCURVE",
"507 63 OFFCURVE",
"246 63 CURVE SMOOTH",
"97 63 OFFCURVE",
"20 138 OFFCURVE",
"20 250 CURVE SMOOTH",
"20 362 OFFCURVE",
"97 438 OFFCURVE",
"246 438 CURVE SMOOTH",
"507 438 OFFCURVE",
"544 63 OFFCURVE",
"807 63 CURVE SMOOTH"
);
}
);
width = 1051;
},
{
layerId = "1AB63056-1127-463F-B001-FB2AC81901C9";
paths = (
{
closed = 1;
nodes = (
"957 63 OFFCURVE",
"1031 138 OFFCURVE",
"1031 250 CURVE SMOOTH",
"1031 362 OFFCURVE",
"957 438 OFFCURVE",
"807 438 CURVE SMOOTH",
"536 438 OFFCURVE",
"507 63 OFFCURVE",
"246 63 CURVE SMOOTH",
"97 63 OFFCURVE",
"20 138 OFFCURVE",
"20 250 CURVE SMOOTH",
"20 362 OFFCURVE",
"97 438 OFFCURVE",
"246 438 CURVE SMOOTH",
"507 438 OFFCURVE",
"544 63 OFFCURVE",
"807 63 CURVE SMOOTH"
);
}
);
width = 1051;
}
);
unicode = 221E;
},
{
glyphname = ampersand;
lastChange = "2018-09-15 15:05:31 +0000";
layers = (
{
layerId = "6F4F10D2-8254-4335-A627-9F8D8891324D";
paths = (
{
closed = 0;
nodes = (
"560 0 LINE",
"420 140 OFFCURVE",
"105 385 OFFCURVE",
"105 560 CURVE SMOOTH",
"105 630 OFFCURVE",
"140 700 OFFCURVE",
"245 700 CURVE SMOOTH",
"350 700 OFFCURVE",
"385 630 OFFCURVE",
"385 560 CURVE SMOOTH",
"385 500 OFFCURVE",
"362 455 OFFCURVE",
"280 420 CURVE SMOOTH",
"185 380 OFFCURVE",
"0 309 OFFCURVE",
"0 175 CURVE SMOOTH",
"0 0 OFFCURVE",
"140 0 OFFCURVE",
"210 0 CURVE SMOOTH",
"385 0 OFFCURVE",
"490 280 OFFCURVE",
"490 280 CURVE"
);
}
);
width = 600;
},
{
layerId = "25139FCF-725A-49A6-A058-8DCF5AC16622";
paths = (
{
closed = 0;
nodes = (
"560 0 LINE",
"420 140 OFFCURVE",
"105 385 OFFCURVE",
"105 560 CURVE SMOOTH",
"105 630 OFFCURVE",
"140 700 OFFCURVE",
"245 700 CURVE SMOOTH",
"350 700 OFFCURVE",
"385 630 OFFCURVE",
"385 560 CURVE SMOOTH",
"385 500 OFFCURVE",
"362 455 OFFCURVE",
"280 420 CURVE SMOOTH",
"185 380 OFFCURVE",
"0 309 OFFCURVE",
"0 175 CURVE SMOOTH",
"0 0 OFFCURVE",
"140 0 OFFCURVE",
"210 0 CURVE SMOOTH",
"385 0 OFFCURVE",
"490 280 OFFCURVE",
"490 280 CURVE"
);
}
);
width = 600;
},
{
layerId = "1AB63056-1127-463F-B001-FB2AC81901C9";
paths = (
{
closed = 0;
nodes = (
"560 0 LINE",
"420 140 OFFCURVE",
"105 385 OFFCURVE",
"105 560 CURVE SMOOTH",
"105 630 OFFCURVE",
"140 700 OFFCURVE",
"245 700 CURVE SMOOTH",
"350 700 OFFCURVE",
"385 630 OFFCURVE",
"385 560 CURVE SMOOTH",
"385 500 OFFCURVE",
"362 455 OFFCURVE",
"280 420 CURVE SMOOTH",
"185 380 OFFCURVE",
"0 309 OFFCURVE",
"0 175 CURVE SMOOTH",
"0 0 OFFCURVE",
"140 0 OFFCURVE",
"210 0 CURVE SMOOTH",
"385 0 OFFCURVE",
"490 280 OFFCURVE",
"490 280 CURVE"
);
}
);
width = 600;
}
);
unicode = 0026;
},
{
glyphname = planfocal;
lastChange = "2018-09-15 15:05:31 +0000";
layers = (
{
layerId = "6F4F10D2-8254-4335-A627-9F8D8891324D";
paths = (
{
closed = 0;
nodes = (
"936 250 LINE",
"20 250 LINE"
);
},
{
closed = 1;
nodes = (
"728 153 OFFCURVE",
"645 42 OFFCURVE",
"478 42 CURVE SMOOTH",
"311 42 OFFCURVE",
"228 165 OFFCURVE",
"228 250 CURVE SMOOTH",
"228 347 OFFCURVE",
"311 458 OFFCURVE",
"478 458 CURVE SMOOTH",
"645 458 OFFCURVE",
"728 347 OFFCURVE",
"728 250 CURVE SMOOTH"
);
}
);
width = 956;
},
{
layerId = "25139FCF-725A-49A6-A058-8DCF5AC16622";
paths = (
{
closed = 0;
nodes = (
"936 250 LINE",
"20 250 LINE"
);
},
{
closed = 1;
nodes = (
"728 153 OFFCURVE",
"645 42 OFFCURVE",
"478 42 CURVE SMOOTH",
"311 42 OFFCURVE",
"228 165 OFFCURVE",
"228 250 CURVE SMOOTH",
"228 347 OFFCURVE",
"311 458 OFFCURVE",
"478 458 CURVE SMOOTH",
"645 458 OFFCURVE",
"728 347 OFFCURVE",
"728 250 CURVE SMOOTH"
);
}
);
width = 956;
},
{
layerId = "1AB63056-1127-463F-B001-FB2AC81901C9";
paths = (
{
closed = 0;
nodes = (
"936 250 LINE",
"20 250 LINE"
);
},
{
closed = 1;
nodes = (
"728 153 OFFCURVE",
"645 42 OFFCURVE",
"478 42 CURVE SMOOTH",
"311 42 OFFCURVE",
"228 165 OFFCURVE",
"228 250 CURVE SMOOTH",
"228 347 OFFCURVE",
"311 458 OFFCURVE",
"478 458 CURVE SMOOTH",
"645 458 OFFCURVE",
"728 347 OFFCURVE",
"728 250 CURVE SMOOTH"
);
}
);
width = 956;
}
);
},
{
glyphname = flash;
lastChange = "2018-09-15 15:05:31 +0000";
layers = (
{
layerId = "6F4F10D2-8254-4335-A627-9F8D8891324D";
paths = (
{
closed = 0;
nodes = (
"198 798 LINE",
"53 425 LINE",
"263 426 LINE",
"88 0 LINE"
);
},
{
closed = 0;
nodes = (
"20 303 LINE",
"88 0 LINE",
"349 167 LINE"
);
}
);
width = 369;
},
{
layerId = "25139FCF-725A-49A6-A058-8DCF5AC16622";
paths = (
{
closed = 0;
nodes = (
"198 798 LINE",
"53 425 LINE",
"263 426 LINE",
"88 0 LINE"
);
},
{
closed = 0;
nodes = (
"20 303 LINE",
"88 0 LINE",
"349 167 LINE"
);
}
);
width = 369;
},
{
layerId = "1AB63056-1127-463F-B001-FB2AC81901C9";
paths = (
{
closed = 0;
nodes = (
"198 798 LINE",
"53 425 LINE",
"263 426 LINE",
"88 0 LINE"
);
},
{
closed = 0;
nodes = (
"20 303 LINE",
"88 0 LINE",
"349 167 LINE"
);
}
);
width = 369;
}
);
},
{
glyphname = filmreload;
lastChange = "2018-09-15 15:05:31 +0000";
layers = (
{
layerId = "6F4F10D2-8254-4335-A627-9F8D8891324D";
paths = (
{
closed = 0;
nodes = (
"720 208 LINE",
"20 208 LINE",
"281 438 LINE"
);
}
);
width = 740;
},
{
layerId = "25139FCF-725A-49A6-A058-8DCF5AC16622";
paths = (
{
closed = 0;
nodes = (
"720 208 LINE",
"20 208 LINE",
"281 438 LINE"
);
}
);
width = 740;
},
{
layerId = "1AB63056-1127-463F-B001-FB2AC81901C9";
paths = (
{
closed = 0;
nodes = (
"720 208 LINE",
"20 208 LINE",
"281 438 LINE"
);
}
);
width = 740;
}
);
},
{
glyphname = test;
lastChange = "2018-09-15 15:05:31 +0000";
layers = (
{
layerId = "6F4F10D2-8254-4335-A627-9F8D8891324D";
paths = (
{
closed = 0;
nodes = (
"-13 -300 LINE",
"-13 500 LINE"
);
},
{
closed = 0;
nodes = (
"-6 427 LINE",
"-6 427 OFFCURVE",
"28 500 OFFCURVE",
"145 500 CURVE",
"262 500 OFFCURVE",
"336 416 OFFCURVE",
"336 251 CURVE",
"336 150 OFFCURVE",
"262 0 OFFCURVE",
"145 0 CURVE",
"28 0 OFFCURVE",
"-6 75 OFFCURVE",
"-6 75 CURVE"
);
},
{
closed = 0;
nodes = (
"804 499 LINE",
"598 498 LINE"
);
},
{
closed = 0;
nodes = (
"589 800 LINE",
"589 800 OFFCURVE",
"589 500 OFFCURVE",
"589 333 CURVE",
"589 281 OFFCURVE",
"589 237 OFFCURVE",
"589 211 CURVE",
"589 127 OFFCURVE",
"584 5 OFFCURVE",
"713 5 CURVE",
"771 5 OFFCURVE",
"811 22 OFFCURVE",
"838 48 CURVE"
);
}
